0
SECTION
2
HEADER
9
$INSUNITS
70
4
9
$ACADVER
1
AC1014
9
$HANDSEED
5
FFFF
0
ENDSEC
0
SECTION
2
TABLES
0
TABLE
2
VPORT
5
8
100
AcDbSymbolTable
0
ENDTAB
0
TABLE
2
LTYPE
5
5
100
AcDbSymbolTable
0
LTYPE
5
14
100
AcDbSymbolTableRecord
100
AcDbLinetypeTableRecord
2
BYBLOCK
70
0
0
LTYPE
5
15
100
AcDbSymbolTableRecord
100
AcDbLinetypeTableRecord
2
BYLAYER
70
0
0
ENDTAB
0
TABLE
2
LAYER
5
2
100
AcDbSymbolTable
70
2
0
LAYER
5
50
100
AcDbSymbolTableRecord
100
AcDbLayerTableRecord
2
0
70
0
6
CONTINUOUS
0
ENDTAB
0
TABLE
2
STYLE
5
3
100
AcDbSymbolTable
70
1
0
STYLE
5
11
100
AcDbSymbolTableRecord
100
AcDbTextStyleTableRecord
2
STANDARD
70
0
0
ENDTAB
0
TABLE
2
VIEW
5
6
100
AcDbSymbolTable
70
0
0
ENDTAB
0
TABLE
2
UCS
5
7
100
AcDbSymbolTable
70
0
0
ENDTAB
0
TABLE
2
APPID
5
9
100
AcDbSymbolTable
70
2
0
APPID
5
12
100
AcDbSymbolTableRecord
100
AcDbRegAppTableRecord
2
ACAD
70
0
0
ENDTAB
0
TABLE
2
DIMSTYLE
5
A
100
AcDbSymbolTable
70
1
0
ENDTAB
0
TABLE
2
BLOCK_RECORD
5
1
100
AcDbSymbolTable
70
1
0
BLOCK_RECORD
5
1F
100
AcDbSymbolTableRecord
100
AcDbBlockTableRecord
2
*MODEL_SPACE
0
BLOCK_RECORD
5
1B
100
AcDbSymbolTableRecord
100
AcDbBlockTableRecord
2
*PAPER_SPACE
0
ENDTAB
0
ENDSEC
0
SECTION
2
BLOCKS
0
BLOCK
5
20
100
AcDbEntity
100
AcDbBlockBegin
2
*MODEL_SPACE
0
ENDBLK
5
21
100
AcDbEntity
100
AcDbBlockEnd
0
BLOCK
5
1C
100
AcDbEntity
100
AcDbBlockBegin
2
*PAPER_SPACE
0
ENDBLK
5
1D
100
AcDbEntity
100
AcDbBlockEnd
0
ENDSEC
0
SECTION
2
ENTITIES
0
LWPOLYLINE
5
100
100
AcDbEntity
8
0
100
AcDbPolyline
90
104
70
1
43
0.0
10
207.14709169418347
20
30.495250190500435
10
208.72517145034297
20
31.282118364236791
10
209.30025400050798
20
31.495250190500435
10
209.77155194310399
20
31.573837947675891
10
210.37815595631199
20
31.59659639319273
10
231.58707137414285
20
31.595275590551299
10
231.93086106172203
20
31.655930911861788
10
232.18536957073908
20
31.793903987807994
10
232.38839217678424
20
31.996926593853235
10
232.52641605283227
20
32.251435102870232
10
232.58186436372878
20
32.493040386080793
10
232.57132334264682
20
51.994462788925603
10
232.62255524511059
20
52.230353060706193
10
232.68938277876558
20
52.332791465583
10
232.79146558293135
20
52.409880619761218
10
233.02400304800614
20
52.474980949961946
10
245.07612395224805
20
52.051308102616183
10
267.77020893961225
20
48.242294552239493
42
0.40670763614692163
10
268.22907034907388
20
48.560453030524343
10
268.93031444347167
20
52.168037763777562
10
272.5652395133219
20
70.868088563878942
10
272.92172757158642
20
73.770256217988518
10
274.0846688974691
20
92.78475964699544
10
274.07279936541113
20
94.71740309201293
10
273.7403127004377
20
113.76454558629796
10
273.71900929542915
20
114.98495239823458
42
0.38183846354904544
10
273.35674710819058
20
115.37619267929109
10
232.93124206248424
20
119.20096520193044
10
232.46329692659376
20
119.30322580645168
10
232.22280924561846
20
119.51201422402846
10
231.31521463042944
20
121.89326898653792
10
231.1653797307595
20
122.08737617475231
10
230.97414274828549
20
122.23825247650495
10
230.62936245872493
20
122.36835153670313
10
211.6625349250701
20
121.70904241808486
10
211.2929387858776
20
121.65087630175265
10
210.97310134620258
20
121.50060960121925
10
210.74302768605548
20
121.19918719837449
10
208.97508255016533
20
116.35524511049029
10
208.70594361188728
20
115.99136398272802
10
208.39154178308354
20
115.86268732537475
10
181.83063246126494
20
115.88575057150129
10
181.51696723393457
20
115.84556769113533
10
181.20789941579892
20
115.63144526289058
10
181.1019812039624
20
115.40144780289566
10
180.90269240538487
20
114.40398780797571
10
180.73388366776729
20
114.24330708661422
10
180.49613919227841
20
114.21750063500133
10
118.97665735331478
20
114.21750063500133
10
118.73903987807969
20
114.24330708661422
10
118.57010414020829
20
114.40398780797571
10
118.37081534163053
20
115.40144780289566
10
118.26489712979424
20
115.63144526289058
10
117.9558293116586
20
115.84556769113533
10
117.64216408432821
20
115.88575057150129
10
91.08125476250963
20
115.8531369062739
10
90.766979933959874
20
115.98181356362716
10
90.497713995428072
20
116.34569469138945
10
88.729895859791682
20
121.18963677927354
10
88.499695199390544
20
121.49105918211843
10
88.17985775971556
20
121.64132588265181
10
87.810261620523306
20
121.69949199898409
10
68.843561087121998
20
122.35880111760231
10
68.498653797307497
20
122.22870205740413
10
68.307543815087683
20
122.07782575565149
10
68.157581915163959
20
121.88371856743721
10
67.309626619253095
20
119.61422402844812
10
67.104140208280569
20
119.34582169164344
10
66.793192786385589
20
119.23022606045221
10
26.109642593967628
20
115.37021306015097
42
0.38176291785722638
10
25.747485431315425
20
114.97898272974422
10
25.726286232760284
20
113.76454558629797
10
25.39379956778685
20
94.717403092012944
10
25.381904904549266
20
92.78475525090046
10
26.544871630482799
20
73.770226421842835
10
27.02835967387653
20
70.868088563878942
10
30.66328474372671
20
52.168037763777562
10
31.362846152877779
20
48.569109687536724
42
0.40667590070496296
10
31.821664592718587
20
48.250943999564299
10
54.500838201676515
20
52.054914909829904
10
66.231623063246161
20
52.47312674625347
10
66.578028956057778
20
52.440690881381784
10
66.783413766827607
20
52.323241046482053
10
66.850368300736591
20
52.22080264160536
10
66.901473202946363
20
51.984912369824769
10
66.885725171450304
20
32.585750571501194
10
66.90607061214132
20
32.384201168402335
10
67.00640081280153
20
32.1090678181356
10
67.178663957327899
20
31.878613157226372
10
67.409093218186641
20
31.706400812801689
10
67.684175768351679
20
31.60601981203957
10
67.885725171450304
20
31.585725171450356
10
88.945440690881469
20
31.587731775463574
10
89.701244602489169
20
31.56433832867663
10
90.172669545339005
20
31.485725171450333
10
90.747625095250214
20
31.272567945135961
10
92.325704851409682
20
30.485699771399592
10
123.3357124714248
20
16.36573533147066
10
124.20810261620522
20
16.088417576835127
10
125.05567691135367
20
15.994665989332022
10
174.41711963423927
20
16.00421640843285
10
174.93614427228863
20
16.036322072644225
10
175.51435102870212
20
16.164516129032336
10
176.13708407416811
20
16.37528575057161
0
LWPOLYLINE
5
101
100
AcDbEntity
8
0
100
AcDbPolyline
90
24
70
1
43
0.0
10
154.93510287020581
20
43.397307594615199
10
154.81082042164098
20
43.493319786639631
10
154.71544323088639
20
43.617272034544058
10
154.65554991109983
20
43.762331724663461
10
154.63507747015498
20
43.91729743459485
10
154.65554991109983
20
44.072313944627922
10
154.71544323088639
20
44.217297434594904
10
154.81082042164098
20
44.341325882651866
10
154.93510287020581
20
44.437312674625453
10
155.07983235966458
20
44.497282194564498
10
155.23510287020574
20
44.517322834645718
10
155.39039878079757
20
44.497282194564498
10
155.53512827025656
20
44.437312674625453
10
155.65938531877075
20
44.341325882651866
10
155.75463550927108
20
44.217297434594904
10
155.81468122936261
20
44.072313944627922
10
155.83512827025655
20
43.91729743459485
10
155.81468122936261
20
43.762331724663461
10
155.75463550927108
20
43.617272034544058
10
155.65938531877075
20
43.493319786639631
10
155.53512827025656
20
43.397307594615199
10
155.39039878079757
20
43.337287274574578
10
155.23510287020574
20
43.317322834645779
10
155.07983235966458
20
43.337287274574578
0
LWPOLYLINE
5
102
100
AcDbEntity
8
0
100
AcDbPolyline
90
24
70
1
43
0.0
10
144.0154432308866
20
42.727279654559311
10
143.95552451104913
20
42.872339344678714
10
143.93507747015497
20
43.02730505461011
10
143.95552451104913
20
43.182321564643182
10
144.0154432308866
20
43.327305054610179
10
144.11082042164094
20
43.451333502667005
10
144.23507747015492
20
43.547320294640599
10
144.37980695961411
20
43.607289814579659
10
144.53510287020572
20
43.627330454660978
10
144.69037338074668
20
43.607289814579659
10
144.83510287020573
20
43.547320294640599
10
144.9593853187707
20
43.451333502667005
10
145.05463550927112
20
43.327305054610179
10
145.11465582931169
20
43.182321564643182
10
145.13512827025647
20
43.02730505461011
10
145.11465582931169
20
42.872339344678714
10
145.05463550927112
20
42.727279654559311
10
144.9593853187707
20
42.603327406654785
10
144.83510287020573
20
42.507315214630481
10
144.69037338074668
20
42.447294894589724
10
144.53510287020572
20
42.427330454660932
10
144.37980695961411
20
42.447294894589724
10
144.23507747015492
20
42.507315214630481
10
144.11082042164094
20
42.603327406654785
0
LWPOLYLINE
5
103
100
AcDbEntity
8
0
100
AcDbPolyline
90
24
70
1
43
0.0
10
155.23510287020574
20
48.65727711455429
10
155.07983235966458
20
48.677317754635617
10
154.93510287020581
20
48.737287274574676
10
154.81082042164098
20
48.83327406654827
10
154.71544323088639
20
48.957302514605097
10
154.65554991109983
20
49.102286004572086
10
154.63507747015498
20
49.257302514605037
10
154.65554991109983
20
49.412344424688861
10
154.71544323088639
20
49.557327914655858
10
154.81082042164098
20
49.681280162560377
10
154.93510287020581
20
49.777343154686264
10
155.07983235966458
20
49.837312674625309
10
155.23510287020574
20
49.857277114554357
10
155.39039878079757
20
49.837312674625309
10
155.53512827025656
20
49.777343154686264
10
155.65938531877075
20
49.681280162560377
10
155.75463550927108
20
49.557327914655858
10
155.81468122936261
20
49.412344424688861
10
155.83512827025655
20
49.257302514605037
10
155.81468122936261
20
49.102286004572086
10
155.75463550927108
20
48.957302514605097
10
155.65938531877075
20
48.83327406654827
10
155.53512827025656
20
48.737287274574676
10
155.39039878079757
20
48.677317754635617
0
LWPOLYLINE
5
104
100
AcDbEntity
8
0
100
AcDbPolyline
90
4
70
1
43
0.0
10
155.83512827025655
20
56.977292354584719
10
155.83512827025655
20
55.777292354584809
10
154.63507747015498
20
55.777292354584809
10
154.63507747015498
20
56.977292354584719
0
LWPOLYLINE
5
105
100
AcDbEntity
8
0
100
AcDbPolyline
90
24
70
1
43
0.0
10
144.37980695961411
20
47.787325374650784
10
144.23507747015492
20
47.847294894589822
10
144.11082042164094
20
47.943281686563417
10
144.0154432308866
20
48.067310134620257
10
143.95552451104913
20
48.212293624587232
10
143.93507747015497
20
48.367310134620205
10
143.95552451104913
20
48.522275844551714
10
144.0154432308866
20
48.667335534671103
10
144.11082042164094
20
48.791287782575637
10
144.23507747015492
20
48.887299974600076
10
144.37980695961411
20
48.947320294640583
10
144.53510287020572
20
48.967284734569496
10
144.69037338074668
20
48.947320294640583
10
144.83510287020573
20
48.887299974600076
10
144.9593853187707
20
48.791287782575637
10
145.05463550927112
20
48.667335534671103
10
145.11465582931169
20
48.522275844551714
10
145.13512827025647
20
48.367310134620205
10
145.11465582931169
20
48.212293624587232
10
145.05463550927112
20
48.067310134620257
10
144.9593853187707
20
47.943281686563417
10
144.83510287020573
20
47.847294894589822
10
144.69037338074668
20
47.787325374650784
10
144.53510287020572
20
47.767284734569444
0
LWPOLYLINE
5
106
100
AcDbEntity
8
0
100
AcDbPolyline
90
24
70
1
43
0.0
10
154.65554991109983
20
47.322301244602507
10
154.63507747015498
20
47.477317754635592
10
154.65554991109983
20
47.632283464566967
10
154.71544323088639
20
47.777343154686385
10
154.81082042164098
20
47.901295402590797
10
154.93510287020581
20
47.997307594615222
10
155.07983235966458
20
48.057327914655858
10
155.23510287020574
20
48.077292354584749
10
155.39039878079757
20
48.057327914655858
10
155.53512827025656
20
47.997307594615222
10
155.65938531877075
20
47.901295402590797
10
155.75463550927108
20
47.777343154686385
10
155.81468122936261
20
47.632283464566967
10
155.83512827025655
20
47.477317754635592
10
155.81468122936261
20
47.322301244602507
10
155.75463550927108
20
47.17731775463551
10
155.65938531877075
20
47.053289306578563
10
155.53512827025656
20
46.957302514604976
10
155.39039878079757
20
46.897332994665931
10
155.23510287020574
20
46.877292354584711
10
155.07983235966458
20
46.897332994665931
10
154.93510287020581
20
46.957302514604976
10
154.81082042164098
20
47.053289306578563
10
154.71544323088639
20
47.17731775463551
0
LWPOLYLINE
5
107
100
AcDbEntity
8
0
100
AcDbPolyline
90
24
70
1
43
0.0
10
154.65554991109983
20
50.882346964693966
10
154.63507747015498
20
51.037312674625355
10
154.65554991109983
20
51.192329184658327
10
154.71544323088639
20
51.337312674625309
10
154.81082042164098
20
51.46134112268237
10
154.93510287020581
20
51.557277114554275
10
155.07983235966458
20
51.617297434594889
10
155.23510287020574
20
51.637338074676222
10
155.39039878079757
20
51.617297434594889
10
155.53512827025656
20
51.557277114554275
10
155.65938531877075
20
51.46134112268237
10
155.75463550927108
20
51.337312674625309
10
155.81468122936261
20
51.192329184658327
10
155.83512827025655
20
51.037312674625355
10
155.81468122936261
20
50.882346964693966
10
155.75463550927108
20
50.737287274574555
10
155.65938531877075
20
50.61333502667015
10
155.53512827025656
20
50.517272034544149
10
155.39039878079757
20
50.45730251460509
10
155.23510287020574
20
50.437338074676177
10
155.07983235966458
20
50.45730251460509
10
154.93510287020581
20
50.517272034544149
10
154.81082042164098
20
50.61333502667015
10
154.71544323088639
20
50.737287274574555
0
LWPOLYLINE
5
108
100
AcDbEntity
8
0
100
AcDbPolyline
90
24
70
1
43
0.0
10
154.71544323088639
20
53.117297434594889
10
154.81082042164098
20
53.24132588265185
10
154.93510287020581
20
53.33731267462543
10
155.07983235966458
20
53.397282194564468
10
155.23510287020574
20
53.417322834645695
10
155.39039878079757
20
53.397282194564468
10
155.53512827025656
20
53.33731267462543
10
155.65938531877075
20
53.24132588265185
10
155.75463550927108
20
53.117297434594889
10
155.81468122936261
20
52.972313944627899
10
155.83512827025655
20
52.817297434594828
10
155.81468122936261
20
52.662331724663431
10
155.75463550927108
20
52.517272034544021
10
155.65938531877075
20
52.393319786639623
10
155.53512827025656
20
52.297332994666021
10
155.39039878079757
20
52.237287274574555
10
155.23510287020574
20
52.217322834645756
10
155.07983235966458
20
52.237287274574555
10
154.93510287020581
20
52.297332994666021
10
154.81082042164098
20
52.393319786639623
10
154.71544323088639
20
52.517272034544021
10
154.65554991109983
20
52.662331724663431
10
154.63507747015498
20
52.817297434594828
10
154.65554991109983
20
52.972313944627899
0
LWPOLYLINE
5
109
100
AcDbEntity
8
0
100
AcDbPolyline
90
24
70
1
43
0.0
10
144.37980695961411
20
52.507289814579622
10
144.53510287020572
20
52.527330454660948
10
144.69037338074668
20
52.507289814579622
10
144.83510287020573
20
52.447320294640576
10
144.9593853187707
20
52.351333502666996
10
145.05463550927112
20
52.227305054610156
10
145.11465582931169
20
52.082321564643181
10
145.13512827025647
20
51.927305054610208
10
145.11465582931169
20
51.772339344678713
10
145.05463550927112
20
51.627279654559402
10
144.9593853187707
20
51.503327406654762
10
144.83510287020573
20
51.407315214630565
10
144.69037338074668
20
51.34729489458983
10
144.53510287020572
20
51.327330454660903
10
144.37980695961411
20
51.34729489458983
10
144.23507747015492
20
51.407315214630565
10
144.11082042164094
20
51.503327406654762
10
144.0154432308866
20
51.627279654559402
10
143.95552451104913
20
51.772339344678713
10
143.93507747015497
20
51.927305054610208
10
143.95552451104913
20
52.082321564643181
10
144.0154432308866
20
52.227305054610156
10
144.11082042164094
20
52.351333502666996
10
144.23507747015492
20
52.447320294640576
0
LWPOLYLINE
5
110
100
AcDbEntity
8
0
100
AcDbPolyline
90
24
70
1
43
0.0
10
144.11082042164094
20
49.723342646685296
10
144.0154432308866
20
49.847294894589822
10
143.95552451104913
20
49.992278384556705
10
143.93507747015497
20
50.147320294640622
10
143.95552451104913
20
50.3023368046737
10
144.0154432308866
20
50.447320294640683
10
144.11082042164094
20
50.571272542545103
10
144.23507747015492
20
50.667335534671103
10
144.37980695961411
20
50.727305054610163
10
144.53510287020572
20
50.747345694691504
10
144.69037338074668
20
50.727305054610163
10
144.83510287020573
20
50.667335534671103
10
144.9593853187707
20
50.571272542545103
10
145.05463550927112
20
50.447320294640683
10
145.11465582931169
20
50.3023368046737
10
145.13512827025647
20
50.147320294640622
10
145.11465582931169
20
49.992278384556705
10
145.05463550927112
20
49.847294894589822
10
144.9593853187707
20
49.723342646685296
10
144.83510287020573
20
49.627279654559295
10
144.69037338074668
20
49.567310134620257
10
144.53510287020572
20
49.547345694691444
10
144.37980695961411
20
49.567310134620257
10
144.23507747015492
20
49.627279654559295
0
LWPOLYLINE
5
111
100
AcDbEntity
8
0
100
AcDbPolyline
90
24
70
1
43
0.0
10
144.69037338074668
20
45.38727457454911
10
144.83510287020573
20
45.327305054610065
10
144.9593853187707
20
45.231318262636478
10
145.05463550927112
20
45.107289814579651
10
145.11465582931169
20
44.962306324612655
10
145.13512827025647
20
44.807340614681266
10
145.11465582931169
20
44.652324104648294
10
145.05463550927112
20
44.507340614681212
10
144.9593853187707
20
44.383312166624364
10
144.83510287020573
20
44.287325374650791
10
144.69037338074668
20
44.227279654559325
10
144.53510287020572
20
44.207315214630391
10
144.37980695961411
20
44.227279654559325
10
144.23507747015492
20
44.287325374650791
10
144.11082042164094
20
44.383312166624364
10
144.0154432308866
20
44.507340614681212
10
143.95552451104913
20
44.652324104648294
10
143.93507747015497
20
44.807340614681266
10
143.95552451104913
20
44.962306324612655
10
144.0154432308866
20
45.107289814579651
10
144.11082042164094
20
45.231318262636478
10
144.23507747015492
20
45.327305054610065
10
144.37980695961411
20
45.38727457454911
10
144.53510287020572
20
45.407315214630451
0
LWPOLYLINE
5
112
100
AcDbEntity
8
0
100
AcDbPolyline
90
24
70
1
43
0.0
10
155.83512827025655
20
54.597282194564514
10
155.81468122936261
20
54.442316484633011
10
155.75463550927108
20
54.297332994666021
10
155.65938531877075
20
54.173304546609067
10
155.53512827025656
20
54.077317754635494
10
155.39039878079757
20
54.017272034544142
10
155.23510287020574
20
53.997307594615229
10
155.07983235966458
20
54.017272034544142
10
154.93510287020581
20
54.077317754635494
10
154.81082042164098
20
54.173304546609067
10
154.71544323088639
20
54.297332994666021
10
154.65554991109983
20
54.442316484633011
10
154.63507747015498
20
54.597282194564514
10
154.65554991109983
20
54.752298704597479
10
154.71544323088639
20
54.897282194564355
10
154.81082042164098
20
55.021310642621302
10
154.93510287020581
20
55.117297434594896
10
155.07983235966458
20
55.177343154686362
10
155.23510287020574
20
55.197307594615154
10
155.39039878079757
20
55.177343154686362
10
155.53512827025656
20
55.117297434594896
10
155.65938531877075
20
55.021310642621302
10
155.75463550927108
20
54.897282194564355
10
155.81468122936261
20
54.752298704597479
0
LWPOLYLINE
5
113
100
AcDbEntity
8
0
100
AcDbPolyline
90
24
70
1
43
0.0
10
155.75463550927108
20
45.397332994666044
10
155.65938531877075
20
45.273304546609111
10
155.53512827025656
20
45.17731775463551
10
155.39039878079757
20
45.117272034544051
10
155.23510287020574
20
45.097307594615252
10
155.07983235966458
20
45.117272034544051
10
154.93510287020581
20
45.17731775463551
10
154.81082042164098
20
45.273304546609111
10
154.71544323088639
20
45.397332994666044
10
154.65554991109983
20
45.542316484633034
10
154.63507747015498
20
45.697282194564423
10
154.65554991109983
20
45.852298704597501
10
154.71544323088639
20
45.997282194564377
10
154.81082042164098
20
46.121310642621324
10
154.93510287020581
20
46.217297434594904
10
155.07983235966458
20
46.277343154686392
10
155.23510287020574
20
46.297307594615191
10
155.39039878079757
20
46.277343154686392
10
155.53512827025656
20
46.217297434594904
10
155.65938531877075
20
46.121310642621324
10
155.75463550927108
20
45.997282194564377
10
155.81468122936261
20
45.852298704597501
10
155.83512827025655
20
45.697282194564423
10
155.81468122936261
20
45.542316484633034
0
LWPOLYLINE
5
114
100
AcDbEntity
8
0
100
AcDbPolyline
90
24
70
1
43
0.0
10
144.53510287020572
20
54.307315214630421
10
144.69037338074668
20
54.287274574549102
10
144.83510287020573
20
54.227305054610156
10
144.9593853187707
20
54.131318262636469
10
145.05463550927112
20
54.007289814579629
10
145.11465582931169
20
53.862306324612639
10
145.13512827025647
20
53.707289814579667
10
145.11465582931169
20
53.552324104648292
10
145.05463550927112
20
53.407340614681296
10
144.9593853187707
20
53.283312166624469
10
144.83510287020573
20
53.187325374650747
10
144.69037338074668
20
53.127279654559288
10
144.53510287020572
20
53.107315214630489
10
144.37980695961411
20
53.127279654559288
10
144.23507747015492
20
53.187325374650747
10
144.11082042164094
20
53.283312166624469
10
144.0154432308866
20
53.407340614681296
10
143.95552451104913
20
53.552324104648292
10
143.93507747015497
20
53.707289814579667
10
143.95552451104913
20
53.862306324612639
10
144.0154432308866
20
54.007289814579629
10
144.11082042164094
20
54.131318262636469
10
144.23507747015492
20
54.227305054610156
10
144.37980695961411
20
54.287274574549102
0
LWPOLYLINE
5
115
100
AcDbEntity
8
0
100
AcDbPolyline
90
24
70
1
43
0.0
10
144.11082042164094
20
47.011303022606171
10
144.23507747015492
20
47.107289814579651
10
144.37980695961411
20
47.167335534671111
10
144.53510287020572
20
47.187299974600016
10
144.69037338074668
20
47.167335534671111
10
144.83510287020573
20
47.107289814579651
10
144.9593853187707
20
47.011303022606171
10
145.05463550927112
20
46.887274574549224
10
145.11465582931169
20
46.742291084582128
10
145.13512827025647
20
46.587274574549149
10
145.11465582931169
20
46.432308864617781
10
145.05463550927112
20
46.287325374650791
10
144.9593853187707
20
46.163296926593944
10
144.83510287020573
20
46.067310134620371
10
144.69037338074668
20
46.007340614681311
10
144.53510287020572
20
45.987299974599978
10
144.37980695961411
20
46.007340614681311
10
144.23507747015492
20
46.067310134620371
10
144.11082042164094
20
46.163296926593944
10
144.0154432308866
20
46.287325374650791
10
143.95552451104913
20
46.432308864617781
10
143.93507747015497
20
46.587274574549149
10
143.95552451104913
20
46.742291084582128
10
144.0154432308866
20
46.887274574549224
0
LWPOLYLINE
5
116
100
AcDbEntity
8
0
100
AcDbPolyline
90
15
70
1
43
0.0
10
153.87084074168138
20
41.901346202692473
10
153.63223266446542
20
41.847345694691505
10
146.13225806451598
20
41.847345694691505
10
145.89364998730002
20
41.901346202692473
10
145.63680467360928
20
42.158318516637109
10
145.5822199644399
20
42.397307594615199
10
145.5822199644399
20
58.147320294640615
10
145.70228600457199
20
58.490322580645291
10
146.00985521971054
20
58.683312166624326
10
153.63223266446542
20
58.697307594615268
10
153.87084074168138
20
58.6433070866143
10
154.12771145542297
20
58.38633477266967
10
154.1822707645415
20
58.147320294640615
10
154.1822707645415
20
42.397307594615199
10
154.12771145542297
20
42.158318516637109
0
LWPOLYLINE
5
117
100
AcDbEntity
8
0
100
AcDbPolyline
90
24
70
1
43
0.0
10
144.37980695961411
20
56.067335534671095
10
144.53510287020572
20
56.0872999746
10
144.69037338074668
20
56.067335534671095
10
144.83510287020573
20
56.00731521463036
10
144.9593853187707
20
55.911303022606148
10
145.05463550927112
20
55.787274574549208
10
145.11465582931169
20
55.642291084582212
10
145.13512827025647
20
55.487274574549133
10
145.11465582931169
20
55.332308864617737
10
145.05463550927112
20
55.187325374650754
10
144.9593853187707
20
55.063296926593921
10
144.83510287020573
20
54.967310134620348
10
144.69037338074668
20
54.907340614681289
10
144.53510287020572
20
54.887299974599955
10
144.37980695961411
20
54.907340614681289
10
144.23507747015492
20
54.967310134620348
10
144.11082042164094
20
55.063296926593921
10
144.0154432308866
20
55.187325374650754
10
143.95552451104913
20
55.332308864617737
10
143.93507747015497
20
55.487274574549133
10
143.95552451104913
20
55.642291084582212
10
144.0154432308866
20
55.787274574549208
10
144.11082042164094
20
55.911303022606148
10
144.23507747015492
20
56.00731521463036
0
LWPOLYLINE
5
118
100
AcDbEntity
8
0
100
AcDbPolyline
90
16
70
1
43
0.0
10
153.69151638303262
20
41.947294894589724
10
153.90855981711979
20
42.037338074676207
10
153.99240538481081
20
42.121310642621324
10
154.08232156464305
20
42.397307594615199
10
154.08232156464305
20
58.206299212598424
10
154.05156210312435
20
58.321336042672101
10
153.90855981711979
20
58.507315214630474
10
153.69151638303262
20
58.597282194564507
10
146.07310134620275
20
58.597282194564507
10
145.9585217170436
20
58.566344932689844
10
145.77223774447566
20
58.423342646685342
10
145.68232156464319
20
58.206299212598424
10
145.68232156464319
20
42.338277876555821
10
145.71295402590818
20
42.223317246634579
10
145.85595631191268
20
42.037338074676207
10
146.07310134620275
20
41.947294894589724
0
LWPOLYLINE
5
119
100
AcDbEntity
8
0
100
AcDbPolyline
90
24
70
1
43
0.0
10
144.02585725171457
20
81.056743713487435
10
144.08575057150117
20
81.201727203454539
10
144.18100076200153
20
81.325755651511372
10
144.30541021082038
20
81.421742443484959
10
144.45001270002535
20
81.481711963424004
10
144.60541021082031
20
81.501727203454507
10
144.7606807213615
20
81.481711963424004
10
144.90530861061708
20
81.421742443484959
10
145.02969265938532
20
81.325755651511372
10
145.12494284988566
20
81.201727203454539
10
145.18498856997738
20
81.056743713487435
10
145.20530861061732
20
80.901701803403725
10
145.18498856997738
20
80.746736093472236
10
145.12494284988566
20
80.601701803403671
10
145.02969265938532
20
80.4777241554483
10
144.90530861061708
20
80.381737363474713
10
144.7606807213615
20
80.321717043434106
10
144.60541021082031
20
80.301752603505307
10
144.45001270002535
20
80.321717043434106
10
144.30541021082038
20
80.381737363474713
10
144.18100076200153
20
80.4777241554483
10
144.08575057150117
20
80.601701803403671
10
144.02585725171457
20
80.746736093472236
10
144.00538481076956
20
80.901701803403725
0
LWPOLYLINE
5
120
100
AcDbEntity
8
0
100
AcDbPolyline
90
24
70
1
43
0.0
10
144.60541021082031
20
82.081737363474772
10
144.45001270002535
20
82.101701803403557
10
144.30541021082038
20
82.161722123444306
10
144.18100076200153
20
82.25773431546861
10
144.08575057150117
20
82.381737363474699
10
144.02585725171457
20
82.526720853441816
10
144.00538481076956
20
82.681762763525512
10
144.02585725171457
20
82.836728473457015
10
144.08575057150117
20
82.981711963424004
10
144.18100076200153
20
83.105740411480852
10
144.30541021082038
20
83.201727203454425
10
144.45001270002535
20
83.26169672339347
10
144.60541021082031
20
83.281711963423959
10
144.7606807213615
20
83.26169672339347
10
144.90530861061708
20
83.201727203454425
10
145.02969265938532
20
83.105740411480852
10
145.12494284988566
20
82.981711963424004
10
145.18498856997738
20
82.836728473457015
10
145.20530861061732
20
82.681762763525512
10
145.18498856997738
20
82.526720853441816
10
145.12494284988566
20
82.381737363474699
10
145.02969265938532
20
82.25773431546861
10
144.90530861061708
20
82.161722123444306
10
144.7606807213615
20
82.101701803403557
0
LWPOLYLINE
5
121
100
AcDbEntity
8
0
100
AcDbPolyline
90
24
70
1
43
0.0
10
144.7606807213615
20
79.701727203454425
10
144.90530861061708
20
79.64175768351538
10
145.02969265938532
20
79.545694691389485
10
145.12494284988566
20
79.421742443484845
10
145.18498856997738
20
79.27675895351797
10
145.20530861061732
20
79.121717043434046
10
145.18498856997738
20
78.966751333502657
10
145.12494284988566
20
78.821717043434205
10
145.02969265938532
20
78.697688595377258
10
144.90530861061708
20
78.601752603505247
10
144.7606807213615
20
78.541732283464626
10
144.60541021082031
20
78.521691643383406
10
144.45001270002535
20
78.541732283464626
10
144.30541021082038
20
78.601752603505247
10
144.18100076200153
20
78.697688595377258
10
144.08575057150117
20
78.821717043434205
10
144.02585725171457
20
78.966751333502657
10
144.00538481076956
20
79.121717043434046
10
144.02585725171457
20
79.27675895351797
10
144.08575057150117
20
79.421742443484845
10
144.18100076200153
20
79.545694691389485
10
144.30541021082038
20
79.64175768351538
10
144.45001270002535
20
79.701727203454425
10
144.60541021082031
20
79.721691643383338
0
LWPOLYLINE
5
122
100
AcDbEntity
8
0
100
AcDbPolyline
90
24
70
1
43
0.0
10
155.0054102108204
20
81.271729743459559
10
154.88102616205239
20
81.367716535433175
10
154.78577597155189
20
81.491694183388418
10
154.72588265176546
20
81.636728473456969
10
154.70541021082045
20
81.791694183388358
10
154.72588265176546
20
81.946736093472182
10
154.78577597155189
20
82.091719583439158
10
154.88102616205239
20
82.215748031496091
10
155.0054102108204
20
82.311734823469692
10
155.15003810007624
20
82.371704343408737
10
155.30530861061717
20
82.39171958343924
10
155.46070612141216
20
82.371704343408737
10
155.605334010668
20
82.311734823469692
10
155.72971805943618
20
82.215748031496091
10
155.82496824993657
20
82.091719583439158
10
155.88498856997714
20
81.946736093472182
10
155.90533401066801
20
81.791694183388358
10
155.88498856997714
20
81.636728473456969
10
155.82496824993657
20
81.491694183388418
10
155.72971805943618
20
81.367716535433175
10
155.605334010668
20
81.271729743459559
10
155.46070612141216
20
81.211709423418938
10
155.30530861061717
20
81.191744983489897
10
155.15003810007624
20
81.211709423418938
0
LWPOLYLINE
5
123
100
AcDbEntity
8
0
100
AcDbPolyline
90
4
70
1
43
0.0
10
155.90533401066801
20
86.531699263398551
10
154.70541021082045
20
86.531699263398551
10
154.70541021082045
20
87.731699263398582
10
155.90533401066801
20
87.731699263398582
0
LWPOLYLINE
5
124
100
AcDbEntity
8
0
100
AcDbPolyline
90
24
70
1
43
0.0
10
155.46070612141216
20
80.591719583439257
10
155.605334010668
20
80.531750063500112
10
155.72971805943618
20
80.43568707137409
10
155.82496824993657
20
80.311734823469706
10
155.88498856997714
20
80.166751333502702
10
155.90533401066801
20
80.011709423418893
10
155.88498856997714
20
79.856743713487504
10
155.82496824993657
20
79.711760223520514
10
155.72971805943618
20
79.587731775463567
10
155.605334010668
20
79.49174498348998
10
155.46070612141216
20
79.431724663449359
10
155.30530861061717
20
79.411760223520446
10
155.15003810007624
20
79.431724663449359
10
155.0054102108204
20
79.49174498348998
10
154.88102616205239
20
79.587731775463567
10
154.78577597155189
20
79.711760223520514
10
154.72588265176546
20
79.856743713487504
10
154.70541021082045
20
80.011709423418893
10
154.72588265176546
20
80.166751333502702
10
154.78577597155189
20
80.311734823469706
10
154.88102616205239
20
80.43568707137409
10
155.0054102108204
20
80.531750063500112
10
155.15003810007624
20
80.591719583439257
10
155.30530861061717
20
80.611734823469661
0
LWPOLYLINE
5
125
100
AcDbEntity
8
0
100
AcDbPolyline
90
24
70
1
43
0.0
10
144.00538481076956
20
84.461747523495092
10
144.02585725171457
20
84.616713233426481
10
144.08575057150117
20
84.76169672339347
10
144.18100076200153
20
84.885725171450304
10
144.30541021082038
20
84.981711963423891
10
144.45001270002535
20
85.041732283464626
10
144.60541021082031
20
85.061722123444255
10
144.7606807213615
20
85.041732283464626
10
144.90530861061708
20
84.981711963423891
10
145.02969265938532
20
84.885725171450304
10
145.12494284988566
20
84.76169672339347
10
145.18498856997738
20
84.616713233426481
10
145.20530861061732
20
84.461747523495092
10
145.18498856997738
20
84.306705613411296
10
145.12494284988566
20
84.161722123444321
10
145.02969265938532
20
84.03771907543819
10
144.90530861061708
20
83.941706883413886
10
144.7606807213615
20
83.881762763525558
10
144.60541021082031
20
83.861722123444224
10
144.45001270002535
20
83.881762763525558
10
144.30541021082038
20
83.941706883413886
10
144.18100076200153
20
84.03771907543819
10
144.08575057150117
20
84.161722123444321
10
144.02585725171457
20
84.306705613411296
0
LWPOLYLINE
5
126
100
AcDbEntity
8
0
100
AcDbPolyline
90
24
70
1
43
0.0
10
144.30541021082038
20
86.76169672339357
10
144.45001270002535
20
86.821742443484936
10
144.60541021082031
20
86.841757683515439
10
144.7606807213615
20
86.821742443484936
10
144.90530861061708
20
86.76169672339357
10
145.02969265938532
20
86.665709931420011
10
145.12494284988566
20
86.541757683515357
10
145.18498856997738
20
86.396697993395975
10
145.20530861061732
20
86.241732283464572
10
145.18498856997738
20
86.086715773431592
10
145.12494284988566
20
85.941732283464603
10
145.02969265938532
20
85.817703835407769
10
144.90530861061708
20
85.721717043434069
10
144.7606807213615
20
85.661747523495137
10
144.60541021082031
20
85.641706883413804
10
144.45001270002535
20
85.661747523495137
10
144.30541021082038
20
85.721717043434069
10
144.18100076200153
20
85.817703835407769
10
144.08575057150117
20
85.941732283464603
10
144.02585725171457
20
86.086715773431592
10
144.00538481076956
20
86.241732283464572
10
144.02585725171457
20
86.396697993395975
10
144.08575057150117
20
86.541757683515357
10
144.18100076200153
20
86.665709931420011
0
LWPOLYLINE
5
127
100
AcDbEntity
8
0
100
AcDbPolyline
90
24
70
1
43
0.0
10
155.88498856997714
20
85.19672339344686
10
155.82496824993657
20
85.05173990347987
10
155.72971805943618
20
84.927762255524499
10
155.605334010668
20
84.831699263398491
10
155.46070612141216
20
84.771755143510305
10
155.30530861061717
20
84.751714503429056
10
155.15003810007624
20
84.771755143510305
10
155.0054102108204
20
84.831699263398491
10
154.88102616205239
20
84.927762255524499
10
154.78577597155189
20
85.05173990347987
10
154.72588265176546
20
85.19672339344686
10
154.70541021082045
20
85.351739903479825
10
154.72588265176546
20
85.506705613411341
10
154.78577597155189
20
85.651689103378317
10
154.88102616205239
20
85.77571755143515
10
155.0054102108204
20
85.871704343408751
10
155.15003810007624
20
85.931750063500104
10
155.30530861061717
20
85.951714503429145
10
155.46070612141216
20
85.931750063500104
10
155.605334010668
20
85.871704343408751
10
155.72971805943618
20
85.77571755143515
10
155.82496824993657
20
85.651689103378317
10
155.88498856997714
20
85.506705613411341
10
155.90533401066801
20
85.351739903479825
0
LWPOLYLINE
5
128
100
AcDbEntity
8
0
100
AcDbPolyline
90
24
70
1
43
0.0
10
155.46070612141216
20
84.151689103378203
10
155.605334010668
20
84.091719583439257
10
155.72971805943618
20
83.995732791465684
10
155.82496824993657
20
83.871704343408737
10
155.88498856997714
20
83.726720853441762
10
155.90533401066801
20
83.571755143510359
10
155.88498856997714
20
83.416713233426435
10
155.82496824993657
20
83.271729743459559
10
155.72971805943618
20
83.147726695453471
10
155.605334010668
20
83.051714503429025
10
155.46070612141216
20
82.991694183388404
10
155.30530861061717
20
82.971729743459605
10
155.15003810007624
20
82.991694183388404
10
155.0054102108204
20
83.051714503429025
10
154.88102616205239
20
83.147726695453471
10
154.78577597155189
20
83.271729743459559
10
154.72588265176546
20
83.416713233426435
10
154.70541021082045
20
83.571755143510359
10
154.72588265176546
20
83.726720853441762
10
154.78577597155189
20
83.871704343408737
10
154.88102616205239
20
83.995732791465684
10
155.0054102108204
20
84.091719583439257
10
155.15003810007624
20
84.151689103378203
10
155.30530861061717
20
84.171729743459565
0
LWPOLYLINE
5
129
100
AcDbEntity
8
0
100
AcDbPolyline
90
24
70
1
43
0.0
10
144.08575057150117
20
77.64175768351538
10
144.18100076200153
20
77.765709931419906
10
144.30541021082038
20
77.861696723393379
10
144.45001270002535
20
77.921742443484959
10
144.60541021082031
20
77.941757683515334
10
144.7606807213615
20
77.921742443484959
10
144.90530861061708
20
77.861696723393379
10
145.02969265938532
20
77.765709931419906
10
145.12494284988566
20
77.64175768351538
10
145.18498856997738
20
77.496697993395969
10
145.20530861061732
20
77.34173228346458
10
145.18498856997738
20
77.186715773431629
10
145.12494284988566
20
77.041732283464512
10
145.02969265938532
20
76.917754635509382
10
144.90530861061708
20
76.82169164338336
10
144.7606807213615
20
76.761747523495046
10
144.60541021082031
20
76.741706883413713
10
144.45001270002535
20
76.761747523495046
10
144.30541021082038
20
76.82169164338336
10
144.18100076200153
20
76.917754635509382
10
144.08575057150117
20
77.041732283464512
10
144.02585725171457
20
77.186715773431629
10
144.00538481076956
20
77.34173228346458
10
144.02585725171457
20
77.496697993395969
0
LWPOLYLINE
5
130
100
AcDbEntity
8
0
100
AcDbPolyline
90
24
70
1
43
0.0
10
145.20530861061732
20
75.561747523495114
10
145.18498856997738
20
75.40670561341129
10
145.12494284988566
20
75.261722123444315
10
145.02969265938532
20
75.137719075438199
10
144.90530861061708
20
75.041706883413781
10
144.7606807213615
20
74.981737363474849
10
144.60541021082031
20
74.961722123444247
10
144.45001270002535
20
74.981737363474849
10
144.30541021082038
20
75.041706883413781
10
144.18100076200153
20
75.137719075438199
10
144.08575057150117
20
75.261722123444315
10
144.02585725171457
20
75.40670561341129
10
144.00538481076956
20
75.561747523495114
10
144.02585725171457
20
75.716713233426503
10
144.08575057150117
20
75.861696723393493
10
144.18100076200153
20
75.985725171450326
10
144.30541021082038
20
76.081711963423913
10
144.45001270002535
20
76.141732283464663
10
144.60541021082031
20
76.161722123444306
10
144.7606807213615
20
76.141732283464663
10
144.90530861061708
20
76.081711963423913
10
145.02969265938532
20
75.985725171450326
10
145.12494284988566
20
75.861696723393493
10
145.18498856997738
20
75.716713233426503
0
LWPOLYLINE
5
131
100
AcDbEntity
8
0
100
AcDbPolyline
90
24
70
1
43
0.0
10
155.605334010668
20
78.75168910337824
10
155.72971805943618
20
78.655702311404639
10
155.82496824993657
20
78.531750063500226
10
155.88498856997714
20
78.386690373380816
10
155.90533401066801
20
78.231724663449441
10
155.88498856997714
20
78.076758953517924
10
155.82496824993657
20
77.931724663449359
10
155.72971805943618
20
77.807696215392411
10
155.605334010668
20
77.711760223520514
10
155.46070612141216
20
77.651739903479779
10
155.30530861061717
20
77.631699263398559
10
155.15003810007624
20
77.651739903479779
10
155.0054102108204
20
77.711760223520514
10
154.88102616205239
20
77.807696215392411
10
154.78577597155189
20
77.931724663449359
10
154.72588265176546
20
78.076758953517924
10
154.70541021082045
20
78.231724663449441
10
154.72588265176546
20
78.386690373380816
10
154.78577597155189
20
78.531750063500226
10
154.88102616205239
20
78.655702311404639
10
155.0054102108204
20
78.75168910337824
10
155.15003810007624
20
78.811734823469692
10
155.30530861061717
20
78.831750063500181
10
155.46070612141216
20
78.811734823469692
0
LWPOLYLINE
5
132
100
AcDbEntity
8
0
100
AcDbPolyline
90
24
70
1
43
0.0
10
144.02585725171457
20
73.626720853441739
10
144.00538481076956
20
73.781762763525535
10
144.02585725171457
20
73.936728473457052
10
144.08575057150117
20
74.081711963424027
10
144.18100076200153
20
74.205740411480861
10
144.30541021082038
20
74.301727203454462
10
144.45001270002535
20
74.361696723393493
10
144.60541021082031
20
74.381711963423982
10
144.7606807213615
20
74.361696723393493
10
144.90530861061708
20
74.301727203454462
10
145.02969265938532
20
74.205740411480861
10
145.12494284988566
20
74.081711963424027
10
145.18498856997738
20
73.936728473457052
10
145.20530861061732
20
73.781762763525535
10
145.18498856997738
20
73.626720853441739
10
145.12494284988566
20
73.481737363474736
10
145.02969265938532
20
73.357708915417788
10
144.90530861061708
20
73.261722123444315
10
144.7606807213615
20
73.20170180340358
10
144.60541021082031
20
73.181737363474781
10
144.45001270002535
20
73.20170180340358
10
144.30541021082038
20
73.261722123444315
10
144.18100076200153
20
73.357708915417788
10
144.08575057150117
20
73.481737363474736
0
LWPOLYLINE
5
133
100
AcDbEntity
8
0
100
AcDbPolyline
90
16
70
1
43
0.0
10
153.97886715773438
20
72.791744983489934
10
154.12186944373889
20
72.9777241554483
10
154.15250190500387
20
73.092735585471118
10
154.15250190500387
20
88.960706121412272
10
154.12186944373889
20
89.075742951485978
10
153.97886715773438
20
89.261722123444315
10
153.70254000508021
20
89.351689103378277
10
146.14330708661439
20
89.351689103378277
10
145.92626365252727
20
89.261722123444315
10
145.78326136652274
20
89.075742951485978
10
145.75250190500378
20
88.960706121412272
10
145.75250190500378
20
73.092735585471118
10
145.84241808483625
20
72.875692151384328
10
146.02882905765819
20
72.732715265430571
10
146.14330708661439
20
72.70170180340358
10
153.76172212344432
20
72.70170180340358
0
LWPOLYLINE
5
134
100
AcDbEntity
8
0
100
AcDbPolyline
90
24
70
1
43
0.0
10
155.82496824993657
20
76.151714503429048
10
155.72971805943618
20
76.027762255524507
10
155.605334010668
20
75.931699263398514
10
155.46070612141216
20
75.871755143510313
10
155.30530861061717
20
75.851714503429093
10
155.15003810007624
20
75.871755143510313
10
155.0054102108204
20
75.931699263398514
10
154.88102616205239
20
76.027762255524507
10
154.78577597155189
20
76.151714503429048
10
154.72588265176546
20
76.296697993396037
10
154.70541021082045
20
76.451739903479847
10
154.72588265176546
20
76.606705613411336
10
154.78577597155189
20
76.751689103378339
10
154.88102616205239
20
76.875717551435173
10
155.0054102108204
20
76.97170434340876
10
155.15003810007624
20
77.031724663449367
10
155.30530861061717
20
77.051714503429139
10
155.46070612141216
20
77.031724663449367
10
155.605334010668
20
76.97170434340876
10
155.72971805943618
20
76.875717551435173
10
155.82496824993657
20
76.751689103378339
10
155.88498856997714
20
76.606705613411336
10
155.90533401066801
20
76.451739903479847
10
155.88498856997714
20
76.296697993396037
0
LWPOLYLINE
5
135
100
AcDbEntity
8
0
100
AcDbPolyline
90
24
70
1
43
0.0
10
154.78577597155189
20
74.371729743459582
10
154.72588265176546
20
74.516713233426458
10
154.70541021082045
20
74.671755143510381
10
154.72588265176546
20
74.826720853441756
10
154.78577597155189
20
74.971704343408661
10
154.88102616205239
20
75.095732791465593
10
155.0054102108204
20
75.191719583439195
10
155.15003810007624
20
75.25168910337824
10
155.30530861061717
20
75.271704343408715
10
155.46070612141216
20
75.25168910337824
10
155.605334010668
20
75.191719583439195
10
155.72971805943618
20
75.095732791465593
10
155.82496824993657
20
74.971704343408661
10
155.88498856997714
20
74.826720853441756
10
155.90533401066801
20
74.671755143510381
10
155.88498856997714
20
74.516713233426458
10
155.82496824993657
20
74.371729743459582
10
155.72971805943618
20
74.24772669545338
10
155.605334010668
20
74.151714503429048
10
155.46070612141216
20
74.091694183388427
10
155.30530861061717
20
74.071729743459514
10
155.15003810007624
20
74.091694183388427
10
155.0054102108204
20
74.151714503429048
10
154.88102616205239
20
74.24772669545338
0
LWPOLYLINE
5
136
100
AcDbEntity
8
0
100
AcDbPolyline
90
16
70
1
43
0.0
10
153.70254000508021
20
72.601727203454516
10
146.20259080518144
20
72.601727203454516
10
145.96395732791461
20
72.655753111506328
10
145.70711201422409
20
72.912725425450958
10
145.65255270510556
20
73.151714503429048
10
145.65255270510556
20
88.90172720345447
10
145.70711201422409
20
89.140716281432674
10
145.96395732791461
20
89.397713995428049
10
146.20259080518144
20
89.45171450342913
10
153.70254000508021
20
89.45171450342913
10
153.94117348234681
20
89.397713995428049
10
154.1325374650751
20
89.244729489459033
10
154.25260350520691
20
88.90172720345447
10
154.25260350520691
20
73.151714503429048
10
154.19801879603756
20
72.912725425450958
10
153.94117348234681
20
72.655753111506328
0
LWPOLYLINE
5
137
100
AcDbEntity
8
0
100
AcDbPolyline
90
2
70
1
43
0.0
10
196.61722123444267
20
114.97442214884437
10
196.61722123444267
20
114.37447294894595
0
LWPOLYLINE
5
138
100
AcDbEntity
8
0
100
AcDbPolyline
90
2
70
1
43
0.0
10
195.8172720345442
20
110.894538989078
10
195.8172720345442
20
110.09453898907806
0
LWPOLYLINE
5
139
100
AcDbEntity
8
0
100
AcDbPolyline
90
2
70
1
43
0.0
10
187.96731013462025
20
110.09453898907806
10
187.96731013462025
20
110.894538989078
0
LINE
5
140
100
AcDbEntity
8
0
100
AcDbLine
10
187.4233426466854
20
113.57586995173996
30
0
11
187.4233426466854
21
111.71297942595892
31
0
0
LWPOLYLINE
5
141
100
AcDbEntity
8
0
100
AcDbPolyline
90
2
70
1
43
0.0
10
187.16736093472201
20
110.09453898907806
10
187.16736093472201
20
110.894538989078
0
LWPOLYLINE
5
142
100
AcDbEntity
8
0
100
AcDbPolyline
90
2
70
1
43
0.0
10
195.8172720345442
20
114.97442214884437
10
195.8172720345442
20
114.37447294894595
0
LWPOLYLINE
5
143
100
AcDbEntity
8
0
100
AcDbPolyline
90
2
70
1
43
0.0
10
196.61722123444267
20
110.894538989078
10
196.61722123444267
20
110.09453898907806
0
LWPOLYLINE
5
144
100
AcDbEntity
8
0
100
AcDbPolyline
90
2
70
1
43
0.0
10
195.80027940055908
20
114.36596393192794
10
195.80027940055908
20
114.98293116586241
0
LWPOLYLINE
5
145
100
AcDbEntity
8
0
100
AcDbPolyline
90
2
70
1
43
0.0
10
196.63421386842788
20
114.98293116586241
10
196.63421386842788
20
114.36596393192794
0
LINE
5
146
100
AcDbEntity
8
0
100
AcDbLine
10
196.36334772669557
20
113.57625095250197
30
0
11
196.36334772669557
21
111.71259842519692
31
0
0
LWPOLYLINE
5
147
100
AcDbEntity
8
0
100
AcDbPolyline
90
2
70
1
43
0.0
10
187.96731013462025
20
114.97442214884437
10
187.96731013462025
20
114.37447294894595
0
LWPOLYLINE
5
148
100
AcDbEntity
8
0
100
AcDbPolyline
90
2
70
1
43
0.0
10
195.80027940055908
20
114.36596393192794
10
195.80027940055908
20
114.98293116586241
0
LWPOLYLINE
5
149
100
AcDbEntity
8
0
100
AcDbPolyline
90
2
70
1
43
0.0
10
187.98430276860543
20
114.36596393192794
10
187.98430276860543
20
114.98293116586241
0
LINE
5
150
100
AcDbEntity
8
0
100
AcDbLine
10
187.4233426466854
20
117.29428498857011
30
0
11
187.4233426466854
21
115.81295402590808
31
0
0
LWPOLYLINE
5
151
100
AcDbEntity
8
0
100
AcDbPolyline
90
2
70
1
43
0.0
10
196.63421386842788
20
114.36596393192794
10
196.63421386842788
20
114.98293116586241
0
LINE
5
152
100
AcDbEntity
8
0
100
AcDbLine
10
196.36334772669557
20
117.29428498857011
30
0
11
196.36334772669557
21
115.81264922529853
31
0
0
LWPOLYLINE
5
153
100
AcDbEntity
8
0
100
AcDbPolyline
90
2
70
1
43
0.0
10
187.16736093472201
20
114.37447294894595
10
187.16736093472201
20
114.97442214884437
0
LWPOLYLINE
5
154
100
AcDbEntity
8
0
100
AcDbPolyline
90
2
70
1
43
0.0
10
187.15036830073657
20
114.36596393192794
10
187.15036830073657
20
114.98293116586241
0
LWPOLYLINE
5
155
100
AcDbEntity
8
0
100
AcDbPolyline
90
2
70
1
43
0.0
10
187.98430276860543
20
114.98293116586241
10
187.98430276860543
20
114.36596393192794
0
LWPOLYLINE
5
156
100
AcDbEntity
8
0
100
AcDbPolyline
90
2
70
1
43
0.0
10
187.15036830073657
20
114.36596393192794
10
187.15036830073657
20
114.98293116586241
0
LWPOLYLINE
5
157
100
AcDbEntity
8
0
100
AcDbPolyline
90
2
70
1
43
0.0
10
196.63421386842788
20
110.90464820929652
10
196.63421386842788
20
110.08435356870713
0
LWPOLYLINE
5
158
100
AcDbEntity
8
0
100
AcDbPolyline
90
2
70
1
43
0.0
10
195.80027940055908
20
110.08435356870713
10
195.80027940055908
20
110.90464820929652
0
LWPOLYLINE
5
159
100
AcDbEntity
8
0
100
AcDbPolyline
90
2
70
1
43
0.0
10
196.63421386842788
20
110.90464820929652
10
196.63421386842788
20
110.08435356870713
0
LINE
5
160
100
AcDbEntity
8
0
100
AcDbLine
10
196.36334772669557
20
117.29428498857011
30
0
11
187.4233426466854
21
117.29428498857011
31
0
0
LWPOLYLINE
5
161
100
AcDbEntity
8
0
100
AcDbPolyline
90
2
70
1
43
0.0
10
187.98430276860543
20
110.90472440944882
10
187.98430276860543
20
110.08435356870713
0
LWPOLYLINE
5
162
100
AcDbEntity
8
0
100
AcDbPolyline
90
2
70
1
43
0.0
10
187.15036830073657
20
110.08435356870713
10
187.15036830073657
20
110.90472440944882
0
LWPOLYLINE
5
163
100
AcDbEntity
8
0
100
AcDbPolyline
90
2
70
1
43
0.0
10
187.15036830073657
20
110.08435356870713
10
187.15036830073657
20
110.90472440944882
0
LWPOLYLINE
5
164
100
AcDbEntity
8
0
100
AcDbPolyline
90
2
70
1
43
0.0
10
112.50746761493522
20
114.97752095504188
10
112.50746761493522
20
114.37749555499113
0
LWPOLYLINE
5
165
100
AcDbEntity
8
0
100
AcDbPolyline
90
2
70
1
43
0.0
10
111.70751841503672
20
110.89758699517405
10
111.70751841503672
20
110.09763779527566
0
LWPOLYLINE
5
166
100
AcDbEntity
8
0
100
AcDbPolyline
90
2
70
1
43
0.0
10
103.85755651511317
20
110.09756159512324
10
103.85755651511317
20
110.89758699517405
0
LINE
5
167
100
AcDbEntity
8
0
100
AcDbLine
10
103.31346202692409
20
113.57896875793756
30
0
11
103.31346202692409
21
111.71607823215652
31
0
0
LWPOLYLINE
5
168
100
AcDbEntity
8
0
100
AcDbPolyline
90
2
70
1
43
0.0
10
103.05748031496069
20
110.09756159512324
10
103.05748031496069
20
110.89758699517405
0
LWPOLYLINE
5
169
100
AcDbEntity
8
0
100
AcDbPolyline
90
2
70
1
43
0.0
10
111.70751841503672
20
114.97752095504188
10
111.70751841503672
20
114.37749555499113
0
LWPOLYLINE
5
170
100
AcDbEntity
8
0
100
AcDbPolyline
90
2
70
1
43
0.0
10
112.50746761493522
20
110.89758699517405
10
112.50746761493522
20
110.09763779527566
0
LWPOLYLINE
5
171
100
AcDbEntity
8
0
100
AcDbPolyline
90
2
70
1
43
0.0
10
111.69052578105152
20
114.36906273812555
10
111.69052578105152
20
114.9859537719076
0
LWPOLYLINE
5
172
100
AcDbEntity
8
0
100
AcDbPolyline
90
2
70
1
43
0.0
10
112.52433324866659
20
114.9859537719076
10
112.52433324866659
20
114.36906273812555
0
LINE
5
173
100
AcDbEntity
8
0
100
AcDbLine
10
112.25346710693429
20
113.57934975869958
30
0
11
112.25346710693429
21
111.71569723139453
31
0
0
LWPOLYLINE
5
174
100
AcDbEntity
8
0
100
AcDbPolyline
90
2
70
1
43
0.0
10
103.85755651511317
20
114.97752095504188
10
103.85755651511317
20
114.37749555499113
0
LWPOLYLINE
5
175
100
AcDbEntity
8
0
100
AcDbPolyline
90
2
70
1
43
0.0
10
111.69052578105152
20
114.9859537719076
10
111.69052578105152
20
114.36906273812555
0
LWPOLYLINE
5
176
100
AcDbEntity
8
0
100
AcDbPolyline
90
2
70
1
43
0.0
10
103.87442214884437
20
114.36906273812555
10
103.87442214884437
20
114.9859537719076
0
LINE
5
177
100
AcDbEntity
8
0
100
AcDbLine
10
103.31346202692409
20
117.29733299466602
30
0
11
103.31346202692409
21
115.81605283210571
31
0
0
LWPOLYLINE
5
178
100
AcDbEntity
8
0
100
AcDbPolyline
90
2
70
1
43
0.0
10
112.52433324866659
20
114.36906273812555
10
112.52433324866659
20
114.9859537719076
0
LINE
5
179
100
AcDbEntity
8
0
100
AcDbLine
10
112.25346710693429
20
117.29733299466602
30
0
11
112.25346710693429
21
115.81567183134371
31
0
0
LWPOLYLINE
5
180
100
AcDbEntity
8
0
100
AcDbPolyline
90
2
70
1
43
0.0
10
103.05748031496069
20
114.97752095504188
10
103.05748031496069
20
114.37749555499113
0
LWPOLYLINE
5
181
100
AcDbEntity
8
0
100
AcDbPolyline
90
2
70
1
43
0.0
10
103.04061468122951
20
114.36906273812555
10
103.04061468122951
20
114.9859537719076
0
LWPOLYLINE
5
182
100
AcDbEntity
8
0
100
AcDbPolyline
90
2
70
1
43
0.0
10
103.87442214884437
20
114.9859537719076
10
103.87442214884437
20
114.36906273812555
0
LWPOLYLINE
5
183
100
AcDbEntity
8
0
100
AcDbPolyline
90
2
70
1
43
0.0
10
103.04061468122951
20
114.9859537719076
10
103.04061468122951
20
114.36906273812555
0
LWPOLYLINE
5
184
100
AcDbEntity
8
0
100
AcDbPolyline
90
2
70
1
43
0.0
10
112.52433324866659
20
110.90774701549401
10
112.52433324866659
20
110.08745237490473
0
LWPOLYLINE
5
185
100
AcDbEntity
8
0
100
AcDbPolyline
90
2
70
1
43
0.0
10
111.69052578105152
20
110.08745237490473
10
111.69052578105152
20
110.90774701549401
0
LWPOLYLINE
5
186
100
AcDbEntity
8
0
100
AcDbPolyline
90
2
70
1
43
0.0
10
112.52433324866659
20
110.90774701549401
10
112.52433324866659
20
110.08745237490473
0
LINE
5
187
100
AcDbEntity
8
0
100
AcDbLine
10
112.25346710693429
20
117.29733299466602
30
0
11
103.31346202692409
21
117.29733299466602
31
0
0
LWPOLYLINE
5
188
100
AcDbEntity
8
0
100
AcDbPolyline
90
2
70
1
43
0.0
10
103.87442214884437
20
110.90774701549401
10
103.87442214884437
20
110.08740157480318
0
LWPOLYLINE
5
189
100
AcDbEntity
8
0
100
AcDbPolyline
90
2
70
1
43
0.0
10
103.04061468122951
20
110.90774701549401
10
103.04061468122951
20
110.08740157480318
0
LWPOLYLINE
5
190
100
AcDbEntity
8
0
100
AcDbPolyline
90
2
70
1
43
0.0
10
103.04061468122951
20
110.08740157480318
10
103.04061468122951
20
110.90774701549401
0
LINE
5
191
100
AcDbEntity
8
0
100
AcDbLine
10
172.96913893827809
20
88.376428752857578
30
0
11
172.41549403098816
21
88.376428752857578
31
0
0
LINE
5
192
100
AcDbEntity
8
0
100
AcDbLine
10
167.88912877825763
20
88.376428752857578
30
0
11
167.33548387096766
21
88.376428752857578
31
0
0
LINE
5
193
100
AcDbEntity
8
0
100
AcDbLine
10
157.46233172466327
20
108.70645161290329
30
0
11
175.24236728473443
21
108.70645161290329
31
0
0
LINE
5
194
100
AcDbEntity
8
0
100
AcDbLine
10
170.42913385826802
20
88.376428752857578
30
0
11
169.87548895097785
21
88.376428752857578
31
0
0
LINE
5
195
100
AcDbEntity
8
0
100
AcDbLine
10
175.24236728473443
20
108.70645161290329
30
0
11
175.24236728473443
21
88.376428752857578
31
0
0
LINE
5
196
100
AcDbEntity
8
0
100
AcDbLine
10
162.80911861823733
20
88.376428752857578
30
0
11
162.2554737109474
21
88.376428752857578
31
0
0
LINE
5
197
100
AcDbEntity
8
0
100
AcDbLine
10
160.26911353822723
20
88.376428752857578
30
0
11
159.71546863093729
21
88.376428752857578
31
0
0
LINE
5
198
100
AcDbEntity
8
0
100
AcDbLine
10
165.3491236982475
20
88.376428752857578
30
0
11
164.79547879095753
21
88.376428752857578
31
0
0
LINE
5
199
100
AcDbEntity
8
0
100
AcDbLine
10
157.72936245872484
20
88.376428752857578
30
0
11
157.46233172466327
21
88.376428752857578
31
0
0
LINE
5
200
100
AcDbEntity
8
0
100
AcDbLine
10
175.24236728473443
20
88.376428752857578
30
0
11
174.95549911099832
21
88.376428752857578
31
0
0
LINE
5
201
100
AcDbEntity
8
0
100
AcDbLine
10
157.46233172466327
20
88.376428752857578
30
0
11
157.46233172466327
21
108.70645161290329
31
0
0
LINE
5
202
100
AcDbEntity
8
0
100
AcDbLine
10
140.39271018542036
20
88.430124460248848
30
0
11
139.83906527813065
21
88.430124460248848
31
0
0
LINE
5
203
100
AcDbEntity
8
0
100
AcDbLine
10
135.31270002540009
20
88.430124460248848
30
0
11
134.75905511811038
21
88.430124460248848
31
0
0
LINE
5
204
100
AcDbEntity
8
0
100
AcDbLine
10
124.885902971806
20
108.76014732029466
30
0
11
142.66593853187715
21
108.76014732029466
31
0
0
LINE
5
205
100
AcDbEntity
8
0
100
AcDbLine
10
137.85270510541022
20
88.430124460248848
30
0
11
137.29906019812051
21
88.430124460248848
31
0
0
LINE
5
206
100
AcDbEntity
8
0
100
AcDbLine
10
142.66593853187715
20
108.76014732029466
30
0
11
142.66593853187715
21
88.430124460248848
31
0
0
LINE
5
207
100
AcDbEntity
8
0
100
AcDbLine
10
130.23268986537985
20
88.430124460248848
30
0
11
129.67904495808992
21
88.430124460248848
31
0
0
LINE
5
208
100
AcDbEntity
8
0
100
AcDbLine
10
127.69268478536951
20
88.430124460248848
30
0
11
127.13903987807976
21
88.430124460248848
31
0
0
LINE
5
209
100
AcDbEntity
8
0
100
AcDbLine
10
132.77269494538996
20
88.430124460248848
30
0
11
132.21905003810025
21
88.430124460248848
31
0
0
LINE
5
210
100
AcDbEntity
8
0
100
AcDbLine
10
125.15290830581674
20
88.430124460248848
30
0
11
124.885902971806
21
88.430124460248848
31
0
0
LINE
5
211
100
AcDbEntity
8
0
100
AcDbLine
10
142.66593853187715
20
88.430124460248848
30
0
11
142.37907035814078
21
88.430124460248848
31
0
0
LINE
5
212
100
AcDbEntity
8
0
100
AcDbLine
10
124.885902971806
20
88.430124460248848
30
0
11
124.885902971806
21
108.76014732029466
31
0
0
LINE
5
213
100
AcDbEntity
8
0
100
AcDbLine
10
150.06667513335037
20
70.645694691389423
30
0
11
150.06667513335037
21
124.52344424688853
31
0
0
LINE
5
214
100
AcDbEntity
8
0
100
AcDbLine
10
150.06667513335037
20
70.645694691389423
30
0
11
149.73639827279663
21
2.1322834645669708
31
0
0
LWPOLYLINE
5
215
100
AcDbEntity
8
0
100
AcDbPolyline
90
8
70
1
43
0.0
10
152.14170688341369
20
83.035661671323425
10
152.21661163322324
20
82.905689611379216
10
152.21661163322324
20
79.195707391414885
10
152.14170688341369
20
79.065786131572281
10
148.06667513335037
20
79.045694691389485
10
147.93680467360946
20
79.120726441452916
10
147.91671323342644
20
82.895758191516393
10
147.99164338328683
20
83.035661671323425
0
ARC
5
216
100
AcDbEntity
8
0
100
AcDbCircle
10
149.91758984517969
20
50.294157988316002
30
0
40
9.9999999999999929
210
0
220
0
230
1
100
AcDbArc
50
167.16143985241999
51
192.8385601475801
0
ARC
5
217
100
AcDbEntity
8
0
100
AcDbCircle
10
149.91758922517852
20
50.294157988316002
30
0
40
9.9999999999999947
210
0
220
0
230
1
100
AcDbArc
50
-12.838560147580047
51
12.838560147580028
0
ARC
5
218
100
AcDbEntity
8
0
100
AcDbCircle
10
149.98787116574249
20
81.04856489712985
30
0
40
9.9999999999999947
210
0
220
0
230
1
100
AcDbArc
50
-12.838560147580047
51
12.838560147580028
0
ARC
5
219
100
AcDbEntity
8
0
100
AcDbCircle
10
149.98787178574366
20
81.04856489712985
30
0
40
9.9999999999999947
210
0
220
0
230
1
100
AcDbArc
50
167.16143985241993
51
192.8385601475801
0
ARC
5
220
100
AcDbEntity
8
0
100
AcDbCircle
10
196.21724663449322
20
114.37444771246886
30
0
40
0.39999999999998936
210
0
220
0
230
1
100
AcDbArc
50
-2.341270889185322e-05
51
180.00002342827068
0
ARC
5
221
100
AcDbEntity
8
0
100
AcDbCircle
10
196.21724663449322
20
114.97444738532137
30
0
40
0.39999999999998936
210
0
220
0
230
1
100
AcDbArc
50
-180.00002342827068
51
0
0
ARC
5
222
100
AcDbEntity
8
0
100
AcDbCircle
10
187.56731013462013
20
114.37444771246886
30
0
40
0.39999999999998936
210
0
220
0
230
1
100
AcDbArc
50
-2.341270889185322e-05
51
180.00002342827068
0
ARC
5
223
100
AcDbEntity
8
0
100
AcDbCircle
10
187.56731013462013
20
114.97444738532137
30
0
40
0.39999999999998936
210
0
220
0
230
1
100
AcDbArc
50
-180.00002342827068
51
0
0
LWPOLYLINE
5
224
100
AcDbEntity
8
0
100
AcDbPolyline
90
2
70
1
43
0.0
10
195.80030480060958
20
114.98290576581158
42
0.99222516307031483
10
196.63416306832619
20
114.98290576581158
42
-0.99222516307031483
0
LWPOLYLINE
5
225
100
AcDbEntity
8
0
100
AcDbPolyline
90
2
70
1
43
0.0
10
196.63416306832619
20
114.3659893319786
42
0.99222516307031483
10
195.80030480060958
20
114.3659893319786
42
-0.99222516307031483
0
ARC
5
226
100
AcDbEntity
8
0
100
AcDbCircle
10
196.21724663449322
20
110.09453882550416
30
0
40
0.39999999999998936
210
0
220
-0
230
1
100
AcDbArc
50
2.3412708902503816e-05
51
179.99997657172932
0
ARC
5
227
100
AcDbEntity
8
0
100
AcDbCircle
10
196.21724663449322
20
110.89451375260106
30
0
40
0.39999999999998936
210
0
220
0
230
1
100
AcDbArc
50
180.00002342827068
51
359.99997658729114
0
LWPOLYLINE
5
228
100
AcDbEntity
8
0
100
AcDbPolyline
90
2
70
1
43
0.0
10
187.984251968504
20
114.3659893319786
42
0.99222516307031483
10
187.15039370078739
20
114.3659893319786
42
-0.99222516307031483
0
LWPOLYLINE
5
229
100
AcDbEntity
8
0
100
AcDbPolyline
90
2
70
1
43
0.0
10
187.15039370078739
20
114.98290576581158
42
0.99222516307031483
10
187.984251968504
20
114.98290576581158
42
-0.99222516307031483
0
LWPOLYLINE
5
230
100
AcDbEntity
8
0
100
AcDbPolyline
90
2
70
1
43
0.0
10
195.80030480060958
20
110.90467360934716
42
0.99222516307031483
10
196.63416306832619
20
110.90467360934716
42
-0.99222516307031483
0
LWPOLYLINE
5
231
100
AcDbEntity
8
0
100
AcDbPolyline
90
2
70
1
43
0.0
10
196.63416306832619
20
110.08437896875806
42
0.99222516307031483
10
195.80030480060958
20
110.08437896875806
42
-0.99222516307031483
0
ARC
5
232
100
AcDbEntity
8
0
100
AcDbCircle
10
187.56731013462013
20
110.89453915265189
30
0
40
0.39999999999998936
210
0
220
0
230
1
100
AcDbArc
50
180.00002342827068
51
359.99997657172929
0
ARC
5
233
100
AcDbEntity
8
0
100
AcDbCircle
10
187.56731013462013
20
110.09451342545344
30
0
40
0.39999999999998936
210
0
220
-0
230
1
100
AcDbArc
50
2.3412708902503816e-05
51
179.99997657172932
0
LWPOLYLINE
5
234
100
AcDbEntity
8
0
100
AcDbPolyline
90
2
70
1
43
0.0
10
187.15039370078739
20
110.90469900939812
42
0.99222516307031483
10
187.984251968504
20
110.90469900939812
42
-0.99222516307031483
0
LWPOLYLINE
5
235
100
AcDbEntity
8
0
100
AcDbPolyline
90
2
70
1
43
0.0
10
187.984251968504
20
110.08435356870721
42
0.99222516307031483
10
187.15039370078739
20
110.08435356870721
42
-0.99222516307031483
0
ARC
5
236
100
AcDbEntity
8
0
100
AcDbCircle
10
112.1074676149351
20
114.37752111861572
30
0
40
0.40000000000000713
210
0
220
0
230
1
100
AcDbArc
50
-2.3428270709798687e-05
51
180.00002342827068
0
ARC
5
237
100
AcDbEntity
8
0
100
AcDbCircle
10
112.1074676149351
20
114.97752079146814
30
0
40
0.40000000000000713
210
0
220
0
230
1
100
AcDbArc
50
-180.00002342827068
51
2.3428270691461952e-05
0
ARC
5
238
100
AcDbEntity
8
0
100
AcDbCircle
10
103.45753111506225
20
114.37752111861572
30
0
40
0.40000000000000713
210
0
220
0
230
1
100
AcDbArc
50
-2.3428270709798687e-05
51
180.00002342827068
0
ARC
5
239
100
AcDbEntity
8
0
100
AcDbCircle
10
103.45753111506225
20
114.97752079146814
30
0
40
0.40000000000000713
210
0
220
0
230
1
100
AcDbArc
50
-180.00002342827068
51
0
0
LWPOLYLINE
5
240
100
AcDbEntity
8
0
100
AcDbPolyline
90
2
70
1
43
0.0
10
111.69052578105152
20
114.98597917195835
42
0.99222516307031861
10
112.5243840487681
20
114.98597917195836
42
-0.99222516307031861
0
LWPOLYLINE
5
241
100
AcDbEntity
8
0
100
AcDbPolyline
90
2
70
1
43
0.0
10
112.5243840487681
20
114.36906273812561
42
0.992225163070382
10
111.69052578105152
20
114.36906273812554
42
-0.992225163070382
0
ARC
5
242
100
AcDbEntity
8
0
100
AcDbCircle
10
112.1074676149351
20
110.09761223165107
30
0
40
0.40000000000000713
210
0
220
-0
230
1
100
AcDbArc
50
2.3428270691461952e-05
51
179.99997657172932
0
ARC
5
243
100
AcDbEntity
8
0
100
AcDbCircle
10
112.1074676149351
20
110.8975871587478
30
0
40
0.40000000000000713
210
0
220
0
230
1
100
AcDbArc
50
180.00002342827068
51
359.99997657172929
0
LWPOLYLINE
5
244
100
AcDbEntity
8
0
100
AcDbPolyline
90
2
70
1
43
0.0
10
103.87447294894596
20
114.36906273812555
42
0.99999999999999989
10
103.04058928117854
20
114.36906273812555
42
-0.99999999999999989
0
LWPOLYLINE
5
245
100
AcDbEntity
8
0
100
AcDbPolyline
90
2
70
1
43
0.0
10
103.04058928117854
20
114.98597917195832
42
0.99999999999999989
10
103.87447294894596
20
114.98597917195832
42
-0.99999999999999989
0
LWPOLYLINE
5
246
100
AcDbEntity
8
0
100
AcDbPolyline
90
2
70
1
43
0.0
10
111.69052578105152
20
110.90774701549401
42
0.99222516307029363
10
112.5243840487681
20
110.90774701549404
42
-0.99222516307029363
0
LWPOLYLINE
5
247
100
AcDbEntity
8
0
100
AcDbPolyline
90
2
70
1
43
0.0
10
112.5243840487681
20
110.08745237490481
42
0.99222516307042086
10
111.69052578105152
20
110.08745237490473
42
-0.99222516307042086
0
ARC
5
248
100
AcDbEntity
8
0
100
AcDbCircle
10
103.45753111506225
20
110.89761255879864
30
0
40
0.40000000000000713
210
0
220
0
230
1
100
AcDbArc
50
180.00002342827068
51
359.99997657172929
0
ARC
5
249
100
AcDbEntity
8
0
100
AcDbCircle
10
103.45753111506225
20
110.09758683160031
30
0
40
0.40000000000000713
210
0
220
-0
230
1
100
AcDbArc
50
2.3428270691461952e-05
51
179.99997657172932
0
LWPOLYLINE
5
250
100
AcDbEntity
8
0
100
AcDbPolyline
90
2
70
1
43
0.0
10
103.04058928117854
20
110.90777241554485
42
0.99999999999999989
10
103.87447294894596
20
110.90777241554485
42
-0.99999999999999989
0
LWPOLYLINE
5
251
100
AcDbEntity
8
0
100
AcDbPolyline
90
2
70
1
43
0.0
10
103.87447294894596
20
110.08742697485401
42
0.99999999999999989
10
103.04058928117854
20
110.08742697485401
42
-0.99999999999999989
0
CIRCLE
5
252
100
AcDbEntity
8
0
100
AcDbCircle
10
149.91879603759207
20
50.283134366268776
30
0
40
10
210
0
220
0
230
1
0
CIRCLE
5
253
100
AcDbEntity
8
0
100
AcDbCircle
10
149.98907797815579
20
81.037566675133363
30
0
40
10
210
0
220
0
230
1
0
CIRCLE
5
254
100
AcDbEntity
8
0
100
AcDbCircle
10
194.79220218440429
20
110.99448818897631
30
0
40
0.37500635001270016
210
0
220
0
230
1
0
CIRCLE
5
255
100
AcDbEntity
8
0
100
AcDbCircle
10
194.79220218440429
20
110.99448818897631
30
0
40
0.12496824993649988
210
0
220
0
230
1
0
CIRCLE
5
256
100
AcDbEntity
8
0
100
AcDbCircle
10
188.99235458470912
20
110.99448818897631
30
0
40
0.37500635001270016
210
0
220
0
230
1
0
CIRCLE
5
257
100
AcDbEntity
8
0
100
AcDbCircle
10
188.99235458470912
20
110.99448818897631
30
0
40
0.12496824993649988
210
0
220
0
230
1
0
CIRCLE
5
258
100
AcDbEntity
8
0
100
AcDbCircle
10
110.68242316484636
20
110.99756159512332
30
0
40
0.37500635001270016
210
0
220
0
230
1
0
CIRCLE
5
259
100
AcDbEntity
8
0
100
AcDbCircle
10
110.68242316484636
20
110.99756159512332
30
0
40
0.12496824993649988
210
0
220
0
230
1
0
CIRCLE
5
260
100
AcDbEntity
8
0
100
AcDbCircle
10
104.88257556515123
20
110.99756159512332
30
0
40
0.37500635001270016
210
0
220
0
230
1
0
CIRCLE
5
261
100
AcDbEntity
8
0
100
AcDbCircle
10
104.88257556515123
20
110.99756159512332
30
0
40
0.12496824993649988
210
0
220
0
230
1
0
CIRCLE
5
262
100
AcDbEntity
8
0
100
AcDbCircle
10
174.09931419862846
20
107.4264668529338
30
0
40
0.63500127000254003
210
0
220
0
230
1
0
CIRCLE
5
263
100
AcDbEntity
8
0
100
AcDbCircle
10
141.52288544577073
20
107.48016256032507
30
0
40
0.63500127000254003
210
0
220
0
230
1
0
CIRCLE
5
264
100
AcDbEntity
8
0
100
AcDbCircle
10
41.286791973583831
20
109.04328168656333
30
0
40
1.5000000000000002
210
0
220
0
230
1
0
CIRCLE
5
265
100
AcDbEntity
8
0
100
AcDbCircle
10
34.852019304038784
20
106.72644145288294
30
0
40
1.5000000000000002
210
0
220
0
230
1
0
CIRCLE
5
266
100
AcDbEntity
8
0
100
AcDbCircle
10
60.439344678689402
20
112.48989077978159
30
0
40
1.5000000000000002
210
0
220
0
230
1
0
CIRCLE
5
267
100
AcDbEntity
8
0
100
AcDbCircle
10
74.162484124968401
20
114.42664465328937
30
0
40
1.5000000000000002
210
0
220
0
230
1
0
CIRCLE
5
268
100
AcDbEntity
8
0
100
AcDbCircle
10
54.04597409194821
20
110.06111252222503
30
0
40
1.5000000000000002
210
0
220
0
230
1
0
CIRCLE
5
269
100
AcDbEntity
8
0
100
AcDbCircle
10
52.731851663703317
20
107.54366268732532
30
0
40
0.85001270002540008
210
0
220
0
230
1
0
CIRCLE
5
270
100
AcDbEntity
8
0
100
AcDbCircle
10
57.812166624333265
20
107.45572771145545
30
0
40
2
210
0
220
0
230
1
0
CIRCLE
5
271
100
AcDbEntity
8
0
100
AcDbCircle
10
67.806883413766855
20
109.67571755143513
30
0
40
1.1000000000000001
210
0
220
0
230
1
0
CIRCLE
5
272
100
AcDbEntity
8
0
100
AcDbCircle
10
72.718415036830265
20
111.98143256286517
30
0
40
0.85001270002540008
210
0
220
0
230
1
0
CIRCLE
5
273
100
AcDbEntity
8
0
100
AcDbCircle
10
77.787172974345808
20
111.62773685547371
30
0
40
2
210
0
220
0
230
1
0
CIRCLE
5
274
100
AcDbEntity
8
0
100
AcDbCircle
10
62.890297180594423
20
107.36634493268993
30
0
40
0.85001270002540008
210
0
220
0
230
1
0
CIRCLE
5
275
100
AcDbEntity
8
0
100
AcDbCircle
10
33.494157988315919
20
104.23230886461772
30
0
40
0.85001270002540008
210
0
220
0
230
1
0
CIRCLE
5
276
100
AcDbEntity
8
0
100
AcDbCircle
10
38.57216154432308
20
104.05572771145546
30
0
40
2
210
0
220
0
230
1
0
CIRCLE
5
277
100
AcDbEntity
8
0
100
AcDbCircle
10
43.647955295910606
20
103.87772415544842
30
0
40
0.85001270002540008
210
0
220
0
230
1
0
CIRCLE
5
278
100
AcDbEntity
8
0
100
AcDbCircle
10
80.674218948438025
20
116.51750063500143
30
0
40
1.5000000000000002
210
0
220
0
230
1
0
CIRCLE
5
279
100
AcDbEntity
8
0
100
AcDbCircle
10
82.853670307340735
20
111.27269494538986
30
0
40
0.85001270002540008
210
0
220
0
230
1
0
CIRCLE
5
280
100
AcDbEntity
8
0
100
AcDbCircle
10
93.965836931673948
20
108.43332486664976
30
0
40
1.5000000000000002
210
0
220
0
230
1
0
CIRCLE
5
281
100
AcDbEntity
8
0
100
AcDbCircle
10
100.47754635509271
20
110.52418084836164
30
0
40
1.5000000000000002
210
0
220
0
230
1
0
CIRCLE
5
282
100
AcDbEntity
8
0
100
AcDbCircle
10
113.43738887477778
20
107.68943357886724
30
0
40
1.5000000000000002
210
0
220
0
230
1
0
CIRCLE
5
283
100
AcDbEntity
8
0
100
AcDbCircle
10
120.01808483616969
20
109.5517653035306
30
0
40
1.5000000000000002
210
0
220
0
230
1
0
CIRCLE
5
284
100
AcDbEntity
8
0
100
AcDbCircle
10
134.32169164338325
20
108.60571501143011
30
0
40
1.1000000000000001
210
0
220
0
230
1
0
CIRCLE
5
285
100
AcDbEntity
8
0
100
AcDbCircle
10
92.52174244348501
20
105.98811277622566
30
0
40
0.85001270002540008
210
0
220
0
230
1
0
CIRCLE
5
286
100
AcDbEntity
8
0
100
AcDbCircle
10
97.590500381000993
20
105.63441706883421
30
0
40
2
210
0
220
0
230
1
0
CIRCLE
5
287
100
AcDbEntity
8
0
100
AcDbCircle
10
102.65699771399545
20
105.27937515875031
30
0
40
0.85001270002540008
210
0
220
0
230
1
0
CIRCLE
5
288
100
AcDbEntity
8
0
100
AcDbCircle
10
111.90883921767865
20
105.29611379222764
30
0
40
0.85001270002540008
210
0
220
0
230
1
0
CIRCLE
5
289
100
AcDbEntity
8
0
100
AcDbCircle
10
79.808280416561047
20
96.779502159004309
30
0
40
1.5000000000000002
210
0
220
0
230
1
0
CIRCLE
5
290
100
AcDbEntity
8
0
100
AcDbCircle
10
116.9621539243078
20
104.76573533147075
30
0
40
2
210
0
220
0
230
1
0
CIRCLE
5
291
100
AcDbEntity
8
0
100
AcDbCircle
10
122.01318262636528
20
104.2340868681738
30
0
40
0.85001270002540008
210
0
220
0
230
1
0
CIRCLE
5
292
100
AcDbEntity
8
0
100
AcDbCircle
10
41.120574041148075
20
89.305715011430053
30
0
40
1.5000000000000002
210
0
220
0
230
1
0
CIRCLE
5
293
100
AcDbEntity
8
0
100
AcDbCircle
10
34.963246126492322
20
86.328956057912137
30
0
40
1.5000000000000002
210
0
220
0
230
1
0
CIRCLE
5
294
100
AcDbEntity
8
0
100
AcDbCircle
10
33.873507747015537
20
83.706553213106531
30
0
40
0.85001270002540008
210
0
220
0
230
1
0
CIRCLE
5
295
100
AcDbEntity
8
0
100
AcDbCircle
10
38.942164084328169
20
84.06172212344427
30
0
40
2
210
0
220
0
230
1
0
CIRCLE
5
296
100
AcDbEntity
8
0
100
AcDbCircle
10
54.233401066802131
20
90.062052324104684
30
0
40
1.5000000000000002
210
0
220
0
230
1
0
CIRCLE
5
297
100
AcDbEntity
8
0
100
AcDbCircle
10
60.441783083566413
20
92.930911861823787
30
0
40
1.5000000000000002
210
0
220
0
230
1
0
CIRCLE
5
298
100
AcDbEntity
8
0
100
AcDbCircle
10
73.550774701549472
20
94.019431038862223
30
0
40
1.5000000000000002
210
0
220
0
230
1
0
CIRCLE
5
299
100
AcDbEntity
8
0
100
AcDbCircle
10
72.37020574041162
20
91.436652273304645
30
0
40
0.85001270002540008
210
0
220
0
230
1
0
CIRCLE
5
300
100
AcDbEntity
8
0
100
AcDbCircle
10
77.448158496317092
20
91.614732029464136
30
0
40
2
210
0
220
0
230
1
0
CIRCLE
5
301
100
AcDbEntity
8
0
100
AcDbCircle
10
53.098094996189964
20
87.459055118110314
30
0
40
0.85001270002540008
210
0
220
0
230
1
0
CIRCLE
5
302
100
AcDbEntity
8
0
100
AcDbCircle
10
58.172161544323004
20
87.725730251460647
30
0
40
2
210
0
220
0
230
1
0
CIRCLE
5
303
100
AcDbEntity
8
0
100
AcDbCircle
10
44.008763017526007
20
84.415265430530923
30
0
40
0.85001270002540008
210
0
220
0
230
1
0
CIRCLE
5
304
100
AcDbEntity
8
0
100
AcDbCircle
10
63.24417068834147
20
87.990805181610426
30
0
40
0.85001270002540008
210
0
220
0
230
1
0
CIRCLE
5
305
100
AcDbEntity
8
0
100
AcDbCircle
10
62.08051816103626
20
73.128702057404212
30
0
40
1.5000000000000002
210
0
220
0
230
1
0
CIRCLE
5
306
100
AcDbEntity
8
0
100
AcDbCircle
10
75.218770637541411
20
73.484531369062779
30
0
40
1.5000000000000002
210
0
220
0
230
1
0
CIRCLE
5
307
100
AcDbEntity
8
0
100
AcDbCircle
10
82.52400304800608
20
91.791236982473947
30
0
40
0.85001270002540008
210
0
220
0
230
1
0
CIRCLE
5
308
100
AcDbEntity
8
0
100
AcDbCircle
10
99.680111760223568
20
90.740894081788269
30
0
40
1.5000000000000002
210
0
220
0
230
1
0
CIRCLE
5
309
100
AcDbEntity
8
0
100
AcDbCircle
10
93.47175514351035
20
87.872059944119883
30
0
40
1.5000000000000002
210
0
220
0
230
1
0
CIRCLE
5
310
100
AcDbEntity
8
0
100
AcDbCircle
10
92.336423672847573
20
85.269062738125513
30
0
40
0.85001270002540008
210
0
220
0
230
1
0
CIRCLE
5
311
100
AcDbEntity
8
0
100
AcDbCircle
10
112.76283972567946
20
86.190195580391219
30
0
40
1.5000000000000002
210
0
220
0
230
1
0
CIRCLE
5
312
100
AcDbEntity
8
0
100
AcDbCircle
10
97.410515621031223
20
85.535737871475703
30
0
40
2
210
0
220
0
230
1
0
CIRCLE
5
313
100
AcDbEntity
8
0
100
AcDbCircle
10
102.48249936499883
20
85.800787401574908
30
0
40
0.85001270002540008
210
0
220
0
230
1
0
CIRCLE
5
314
100
AcDbEntity
8
0
100
AcDbCircle
10
111.71905003810025
20
83.549174498349089
30
0
40
0.85001270002540008
210
0
220
0
230
1
0
CIRCLE
5
315
100
AcDbEntity
8
0
100
AcDbCircle
10
118.86731013462033
20
89.27396494792994
30
0
40
1.5000000000000002
210
0
220
0
230
1
0
CIRCLE
5
316
100
AcDbEntity
8
0
100
AcDbCircle
10
121.84038608077209
20
84.43467106934213
30
0
40
0.85001270002540008
210
0
220
0
230
1
0
CIRCLE
5
317
100
AcDbEntity
8
0
100
AcDbCircle
10
116.7807467614937
20
83.992760985522054
30
0
40
2
210
0
220
0
230
1
0
CIRCLE
5
318
100
AcDbEntity
8
0
100
AcDbCircle
10
81.093243586487233
20
76.986614173228432
30
0
40
1.5000000000000002
210
0
220
0
230
1
0
CIRCLE
5
319
100
AcDbEntity
8
0
100
AcDbCircle
10
79.380162560325061
20
71.572720345440771
30
0
40
2
210
0
220
0
230
1
0
CIRCLE
5
320
100
AcDbEntity
8
0
100
AcDbCircle
10
84.396672593345116
20
72.366522733045485
30
0
40
0.85001270002540008
210
0
220
0
230
1
0
CIRCLE
5
321
100
AcDbEntity
8
0
100
AcDbCircle
10
165.15113030226053
20
108.61526543053094
30
0
40
1.1000000000000001
210
0
220
0
230
1
0
CIRCLE
5
322
100
AcDbEntity
8
0
100
AcDbCircle
10
184.48651257302529
20
110.07109474218952
30
0
40
1.5000000000000002
210
0
220
0
230
1
0
CIRCLE
5
323
100
AcDbEntity
8
0
100
AcDbCircle
10
178.43677927355859
20
106.88125476250957
30
0
40
1.5000000000000002
210
0
220
0
230
1
0
CIRCLE
5
324
100
AcDbEntity
8
0
100
AcDbCircle
10
217.68849377698757
20
113.88348996697994
30
0
40
1.5000000000000002
210
0
220
0
230
1
0
CIRCLE
5
325
100
AcDbEntity
8
0
100
AcDbCircle
10
197.88514097028198
20
107.89019558039116
30
0
40
1.5000000000000002
210
0
220
0
230
1
0
CIRCLE
5
326
100
AcDbEntity
8
0
100
AcDbCircle
10
204.04249428498861
20
110.86695453390917
30
0
40
1.5000000000000002
210
0
220
0
230
1
0
CIRCLE
5
327
100
AcDbEntity
8
0
100
AcDbCircle
10
216.59875539751098
20
111.26108712217432
30
0
40
0.85001270002540008
210
0
220
0
230
1
0
CIRCLE
5
328
100
AcDbEntity
8
0
100
AcDbCircle
10
177.43924307848627
20
104.2224282448565
30
0
40
0.85001270002540008
210
0
220
0
230
1
0
CIRCLE
5
329
100
AcDbEntity
8
0
100
AcDbCircle
10
182.49243078486165
20
104.75427990855997
30
0
40
2
210
0
220
0
230
1
0
CIRCLE
5
330
100
AcDbEntity
8
0
100
AcDbCircle
10
187.54358648717289
20
105.28442976885958
30
0
40
0.85001270002540008
210
0
220
0
230
1
0
CIRCLE
5
331
100
AcDbEntity
8
0
100
AcDbCircle
10
196.7954279908561
20
105.26779273558557
30
0
40
0.85001270002540008
210
0
220
0
230
1
0
CIRCLE
5
332
100
AcDbEntity
8
0
100
AcDbCircle
10
201.86405892811786
20
105.62296164592331
30
0
40
2
210
0
220
0
230
1
0
CIRCLE
5
333
100
AcDbEntity
8
0
100
AcDbCircle
10
206.93065786131569
20
105.97650495300995
30
0
40
0.85001270002540008
210
0
220
0
230
1
0
CIRCLE
5
334
100
AcDbEntity
8
0
100
AcDbCircle
10
223.84584709169417
20
116.8602743205487
30
0
40
1.5000000000000002
210
0
220
0
230
1
0
CIRCLE
5
335
100
AcDbEntity
8
0
100
AcDbCircle
10
231.43215646431304
20
114.11572263144535
30
0
40
1.1000000000000001
210
0
220
0
230
1
0
CIRCLE
5
336
100
AcDbEntity
8
0
100
AcDbCircle
10
244.09230378460757
20
112.56708153416311
30
0
40
1.5000000000000002
210
0
220
0
230
1
0
CIRCLE
5
337
100
AcDbEntity
8
0
100
AcDbCircle
10
221.66741173482347
20
111.61628143256294
30
0
40
2
210
0
220
0
230
1
0
CIRCLE
5
338
100
AcDbEntity
8
0
100
AcDbCircle
10
226.73401066802128
20
111.96982473964954
30
0
40
0.85001270002540008
210
0
220
0
230
1
0
CIRCLE
5
339
100
AcDbEntity
8
0
100
AcDbCircle
10
237.7876047752095
20
109.91663703327401
30
0
40
1.5000000000000002
210
0
220
0
230
1
0
CIRCLE
5
340
100
AcDbEntity
8
0
100
AcDbCircle
10
236.56212852425685
20
107.35486410972828
30
0
40
0.85001270002540008
210
0
220
0
230
1
0
CIRCLE
5
341
100
AcDbEntity
8
0
100
AcDbCircle
10
241.64241808483624
20
107.44427228854464
30
0
40
2
210
0
220
0
230
1
0
CIRCLE
5
342
100
AcDbEntity
8
0
100
AcDbCircle
10
246.72057404114798
20
107.53218186436382
30
0
40
0.85001270002540008
210
0
220
0
230
1
0
CIRCLE
5
343
100
AcDbEntity
8
0
100
AcDbCircle
10
263.25387350774713
20
109.21221742443493
30
0
40
1.5000000000000002
210
0
220
0
230
1
0
CIRCLE
5
344
100
AcDbEntity
8
0
100
AcDbCircle
10
256.9963931927864
20
106.45214630429268
30
0
40
1.5000000000000002
210
0
220
0
230
1
0
CIRCLE
5
345
100
AcDbEntity
8
0
100
AcDbCircle
10
255.8157988315979
20
103.8693675387351
30
0
40
0.85001270002540008
210
0
220
0
230
1
0
CIRCLE
5
346
100
AcDbEntity
8
0
100
AcDbCircle
10
224.72105664211341
20
96.59083058166118
30
0
40
1.5000000000000002
210
0
220
0
230
1
0
CIRCLE
5
347
100
AcDbEntity
8
0
100
AcDbCircle
10
260.89377698755402
20
104.04742189484388
30
0
40
2
210
0
220
0
230
1
0
CIRCLE
5
348
100
AcDbEntity
8
0
100
AcDbCircle
10
265.96962153924324
20
104.22395224790444
30
0
40
0.85001270002540008
210
0
220
0
230
1
0
CIRCLE
5
349
100
AcDbEntity
8
0
100
AcDbCircle
10
179.09857759715533
20
86.843053086106238
30
0
40
1.5000000000000002
210
0
220
0
230
1
0
CIRCLE
5
350
100
AcDbEntity
8
0
100
AcDbCircle
10
177.61203962407922
20
84.423418846837762
30
0
40
0.85001270002540008
210
0
220
0
230
1
0
CIRCLE
5
351
100
AcDbEntity
8
0
100
AcDbCircle
10
182.67383794767582
20
83.981305562611169
30
0
40
2
210
0
220
0
230
1
0
CIRCLE
5
352
100
AcDbEntity
8
0
100
AcDbCircle
10
185.64577089154187
20
88.819964439929009
30
0
40
1.5000000000000002
210
0
220
0
230
1
0
CIRCLE
5
353
100
AcDbEntity
8
0
100
AcDbCircle
10
218.2862839725681
20
94.273990347980771
30
0
40
1.5000000000000002
210
0
220
0
230
1
0
CIRCLE
5
354
100
AcDbEntity
8
0
100
AcDbCircle
10
216.92839725679463
20
91.779857759715583
30
0
40
0.85001270002540008
210
0
220
0
230
1
0
CIRCLE
5
355
100
AcDbEntity
8
0
100
AcDbCircle
10
204.84533909067818
20
90.463703327406705
30
0
40
1.5000000000000002
210
0
220
0
230
1
0
CIRCLE
5
356
100
AcDbEntity
8
0
100
AcDbCircle
10
198.37109474218963
20
88.259512319024708
30
0
40
1.5000000000000002
210
0
220
0
230
1
0
CIRCLE
5
357
100
AcDbEntity
8
0
100
AcDbCircle
10
187.73337566675153
20
83.537922275844622
30
0
40
0.85001270002540008
210
0
220
0
230
1
0
CIRCLE
5
358
100
AcDbEntity
8
0
100
AcDbCircle
10
196.96990093980213
20
85.789458978917978
30
0
40
0.85001270002540008
210
0
220
0
230
1
0
CIRCLE
5
359
100
AcDbEntity
8
0
100
AcDbCircle
10
202.04406908813823
20
85.524282448564918
30
0
40
2
210
0
220
0
230
1
0
CIRCLE
5
360
100
AcDbEntity
8
0
100
AcDbCircle
10
207.1159766319534
20
85.257734315468724
30
0
40
0.85001270002540008
210
0
220
0
230
1
0
CIRCLE
5
361
100
AcDbEntity
8
0
100
AcDbCircle
10
216.70749301498589
20
74.665455930911889
30
0
40
1.5000000000000002
210
0
220
0
230
1
0
CIRCLE
5
362
100
AcDbEntity
8
0
100
AcDbCircle
10
215.05577851155707
20
72.355397510795001
30
0
40
0.85001270002540008
210
0
220
0
230
1
0
CIRCLE
5
363
100
AcDbEntity
8
0
100
AcDbCircle
10
220.07442214884441
20
71.561264922529858
30
0
40
2
210
0
220
0
230
1
0
CIRCLE
5
364
100
AcDbEntity
8
0
100
AcDbCircle
10
222.0064262128526
20
91.603276606553209
30
0
40
2
210
0
220
0
230
1
0
CIRCLE
5
365
100
AcDbEntity
8
0
100
AcDbCircle
10
227.08221996444013
20
91.425273050546124
30
0
40
0.85001270002540008
210
0
220
0
230
1
0
CIRCLE
5
366
100
AcDbEntity
8
0
100
AcDbCircle
10
237.60944881889759
20
90.449504699009481
30
0
40
1.5000000000000002
210
0
220
0
230
1
0
CIRCLE
5
367
100
AcDbEntity
8
0
100
AcDbCircle
10
244.08369316738643
20
92.653695707391421
30
0
40
1.5000000000000002
210
0
220
0
230
1
0
CIRCLE
5
368
100
AcDbEntity
8
0
100
AcDbCircle
10
236.20825501651012
20
87.979451358902793
30
0
40
0.85001270002540008
210
0
220
0
230
1
0
CIRCLE
5
369
100
AcDbEntity
8
0
100
AcDbCircle
10
241.28242316484631
20
87.714274828549591
30
0
40
2
210
0
220
0
230
1
0
CIRCLE
5
370
100
AcDbEntity
8
0
100
AcDbCircle
10
246.35433070866142
20
87.447726695453412
30
0
40
0.85001270002540008
210
0
220
0
230
1
0
CIRCLE
5
371
100
AcDbEntity
8
0
100
AcDbCircle
10
256.89908559817127
20
86.852349504699077
30
0
40
1.5000000000000002
210
0
220
0
230
1
0
CIRCLE
5
372
100
AcDbEntity
8
0
100
AcDbCircle
10
255.45501651003292
20
84.407137414274871
30
0
40
0.85001270002540008
210
0
220
0
230
1
0
CIRCLE
5
373
100
AcDbEntity
8
0
100
AcDbCircle
10
263.41082042164089
20
88.943205486411102
30
0
40
1.5000000000000002
210
0
220
0
230
1
0
CIRCLE
5
374
100
AcDbEntity
8
0
100
AcDbCircle
10
260.52377444754893
20
84.053441706883405
30
0
40
2
210
0
220
0
230
1
0
CIRCLE
5
375
100
AcDbEntity
8
0
100
AcDbCircle
10
265.59027178054362
20
83.698399796799549
30
0
40
0.85001270002540008
210
0
220
0
230
1
0
CIRCLE
5
376
100
AcDbEntity
8
0
100
AcDbCircle
10
223.37665735331487
20
76.180822961645845
30
0
40
1.5000000000000002
210
0
220
0
230
1
0
CIRCLE
5
377
100
AcDbEntity
8
0
100
AcDbCircle
10
242.37477774955573
20
72.235483870967769
30
0
40
1.5000000000000002
210
0
220
0
230
1
0
CIRCLE
5
378
100
AcDbEntity
8
0
100
AcDbCircle
10
37.376581153162306
20
65.816154432308849
30
0
40
1.5000000000000002
210
0
220
0
230
1
0
CIRCLE
5
379
100
AcDbEntity
8
0
100
AcDbCircle
10
41.602159004318082
20
64.050723901447782
30
0
40
2
210
0
220
0
230
1
0
CIRCLE
5
380
100
AcDbEntity
8
0
100
AcDbCircle
10
36.614579629159387
20
63.080492760985642
30
0
40
0.85001270002540008
210
0
220
0
230
1
0
CIRCLE
5
381
100
AcDbEntity
8
0
100
AcDbCircle
10
43.125273050546191
20
69.521107442214884
30
0
40
1.5000000000000002
210
0
220
0
230
1
0
CIRCLE
5
382
100
AcDbEntity
8
0
100
AcDbCircle
10
56.268046736093538
20
69.524612649225332
30
0
40
1.5000000000000002
210
0
220
0
230
1
0
CIRCLE
5
383
100
AcDbEntity
8
0
100
AcDbCircle
10
55.458394716789599
20
66.802667005334115
30
0
40
0.85001270002540008
210
0
220
0
230
1
0
CIRCLE
5
384
100
AcDbEntity
8
0
100
AcDbCircle
10
65.464058928117765
20
68.566954533909097
30
0
40
0.85001270002540008
210
0
220
0
230
1
0
CIRCLE
5
385
100
AcDbEntity
8
0
100
AcDbCircle
10
74.361747523495069
20
70.77713995427996
30
0
40
0.85001270002540008
210
0
220
0
230
1
0
CIRCLE
5
386
100
AcDbEntity
8
0
100
AcDbCircle
10
60.462153924307813
20
67.685725171450372
30
0
40
2
210
0
220
0
230
1
0
CIRCLE
5
387
100
AcDbEntity
8
0
100
AcDbCircle
10
46.58790957581914
20
65.01910083820168
30
0
40
0.85001270002540008
210
0
220
0
230
1
0
CIRCLE
5
388
100
AcDbEntity
8
0
100
AcDbCircle
10
70.801778003556137
20
58.35709931419877
30
0
40
1.1000000000000001
210
0
220
0
230
1
0
CIRCLE
5
389
100
AcDbEntity
8
0
100
AcDbCircle
10
95.834772669545373
20
66.887122174244382
30
0
40
1.5000000000000002
210
0
220
0
230
1
0
CIRCLE
5
390
100
AcDbEntity
8
0
100
AcDbCircle
10
101.51790703581425
20
70.691871983744008
30
0
40
1.5000000000000002
210
0
220
0
230
1
0
CIRCLE
5
391
100
AcDbEntity
8
0
100
AcDbCircle
10
100.09050038100078
20
65.195732791465616
30
0
40
2
210
0
220
0
230
1
0
CIRCLE
5
392
100
AcDbEntity
8
0
100
AcDbCircle
10
105.05859791719604
20
66.250977901955821
30
0
40
0.85001270002540008
210
0
220
0
230
1
0
CIRCLE
5
393
100
AcDbEntity
8
0
100
AcDbCircle
10
95.120624841249537
20
64.138582677165459
30
0
40
0.85001270002540008
210
0
220
0
230
1
0
CIRCLE
5
394
100
AcDbEntity
8
0
100
AcDbCircle
10
121.40688341376676
20
69.337338074676154
30
0
40
1.5000000000000002
210
0
220
0
230
1
0
CIRCLE
5
395
100
AcDbEntity
8
0
100
AcDbCircle
10
115.85999491998996
20
65.336576073152287
30
0
40
1.5000000000000002
210
0
220
0
230
1
0
CIRCLE
5
396
100
AcDbEntity
8
0
100
AcDbCircle
10
120.17216154432322
20
63.794716789433544
30
0
40
2
210
0
220
0
230
1
0
CIRCLE
5
397
100
AcDbEntity
8
0
100
AcDbCircle
10
115.24218948437897
20
62.564795529591038
30
0
40
0.85001270002540008
210
0
220
0
230
1
0
CIRCLE
5
398
100
AcDbEntity
8
0
100
AcDbCircle
10
125.10040640081294
20
65.02270764541538
30
0
40
0.85001270002540008
210
0
220
0
230
1
0
CIRCLE
5
399
100
AcDbEntity
8
0
100
AcDbCircle
10
82.771069342138844
20
48.549987299974532
30
0
40
1.5000000000000002
210
0
220
0
230
1
0
CIRCLE
5
400
100
AcDbEntity
8
0
100
AcDbCircle
10
76.421082042164244
20
46.009982219964407
30
0
40
1.5000000000000002
210
0
220
0
230
1
0
CIRCLE
5
401
100
AcDbEntity
8
0
100
AcDbCircle
10
75.151079502159064
20
43.469977139954274
30
0
40
0.85001270002540008
210
0
220
0
230
1
0
CIRCLE
5
402
100
AcDbEntity
8
0
100
AcDbCircle
10
80.232156464313022
20
43.470713741427531
30
0
40
2
210
0
220
0
230
1
0
CIRCLE
5
403
100
AcDbEntity
8
0
100
AcDbCircle
10
85.311074422148977
20
43.469977139954274
30
0
40
0.85001270002540008
210
0
220
0
230
1
0
CIRCLE
5
404
100
AcDbEntity
8
0
100
AcDbCircle
10
103.15814071628141
20
43.419837439675007
30
0
40
1.5000000000000002
210
0
220
0
230
1
0
CIRCLE
5
405
100
AcDbEntity
8
0
100
AcDbCircle
10
109.94917449834887
20
44.229794259588637
30
0
40
1.5000000000000002
210
0
220
0
230
1
0
CIRCLE
5
406
100
AcDbEntity
8
0
100
AcDbCircle
10
101.27401574803162
20
41.295097790195541
30
0
40
0.85001270002540008
210
0
220
0
230
1
0
CIRCLE
5
407
100
AcDbEntity
8
0
100
AcDbCircle
10
106.18216916433838
20
39.980721361442754
30
0
40
2
210
0
220
0
230
1
0
CIRCLE
5
408
100
AcDbEntity
8
0
100
AcDbCircle
10
111.08783337566662
20
38.665481330962734
30
0
40
0.85001270002540008
210
0
220
0
230
1
0
CIRCLE
5
409
100
AcDbEntity
8
0
100
AcDbCircle
10
126.19131318262637
20
35.225323850647783
30
0
40
1.5000000000000002
210
0
220
0
230
1
0
CIRCLE
5
410
100
AcDbEntity
8
0
100
AcDbCircle
10
123.82143764287525
20
33.660629921259897
30
0
40
0.85001270002540008
210
0
220
0
230
1
0
CIRCLE
5
411
100
AcDbEntity
8
0
100
AcDbCircle
10
128.22217424434848
20
31.120726441452913
30
0
40
2
210
0
220
0
230
1
0
CIRCLE
5
412
100
AcDbEntity
8
0
100
AcDbCircle
10
132.96055372110732
20
34.250038100076267
30
0
40
1.5000000000000002
210
0
220
0
230
1
0
CIRCLE
5
413
100
AcDbEntity
8
0
100
AcDbCircle
10
132.62026924053862
20
28.580619761239632
30
0
40
0.85001270002540008
210
0
220
0
230
1
0
CIRCLE
5
414
100
AcDbEntity
8
0
100
AcDbCircle
10
182.97470154940311
20
68.097434594869242
30
0
40
1.5000000000000002
210
0
220
0
230
1
0
CIRCLE
5
415
100
AcDbEntity
8
0
100
AcDbCircle
10
176.19883159766329
20
67.169088138176321
30
0
40
1.5000000000000002
210
0
220
0
230
1
0
CIRCLE
5
416
100
AcDbEntity
8
0
100
AcDbCircle
10
174.35209550419108
20
65.011785623571313
30
0
40
0.85001270002540008
210
0
220
0
230
1
0
CIRCLE
5
417
100
AcDbEntity
8
0
100
AcDbCircle
10
179.28242316484628
20
63.783261366522773
30
0
40
2
210
0
220
0
230
1
0
CIRCLE
5
418
100
AcDbEntity
8
0
100
AcDbCircle
10
184.21028702057399
20
62.55384810769624
30
0
40
0.85001270002540008
210
0
220
0
230
1
0
CIRCLE
5
419
100
AcDbEntity
8
0
100
AcDbCircle
10
202.90353060706116
20
69.624663449326931
30
0
40
1.5000000000000002
210
0
220
0
230
1
0
CIRCLE
5
420
100
AcDbEntity
8
0
100
AcDbCircle
10
196.16421132842262
20
68.460426720853434
30
0
40
1.5000000000000002
210
0
220
0
230
1
0
CIRCLE
5
421
100
AcDbEntity
8
0
100
AcDbCircle
10
194.39385318770633
20
66.239954279908602
30
0
40
0.85001270002540008
210
0
220
0
230
1
0
CIRCLE
5
422
100
AcDbEntity
8
0
100
AcDbCircle
10
199.36405892811808
20
65.184277368554831
30
0
40
2
210
0
220
0
230
1
0
CIRCLE
5
423
100
AcDbEntity
8
0
100
AcDbCircle
10
204.33185166370322
20
64.127584455168972
30
0
40
0.85001270002540008
210
0
220
0
230
1
0
CIRCLE
5
424
100
AcDbEntity
8
0
100
AcDbCircle
10
225.09067818135645
20
70.76601473202949
30
0
40
0.85001270002540008
210
0
220
0
230
1
0
CIRCLE
5
425
100
AcDbEntity
8
0
100
AcDbCircle
10
235.68016256032524
20
70.83675387350786
30
0
40
1.5000000000000002
210
0
220
0
230
1
0
CIRCLE
5
426
100
AcDbEntity
8
0
100
AcDbCircle
10
233.9883921767844
20
68.555854711709458
30
0
40
0.85001270002540008
210
0
220
0
230
1
0
CIRCLE
5
427
100
AcDbEntity
8
0
100
AcDbCircle
10
238.99240538481084
20
67.674269748539473
30
0
40
2
210
0
220
0
230
1
0
CIRCLE
5
428
100
AcDbEntity
8
0
100
AcDbCircle
10
243.99405638811277
20
66.791592583185206
30
0
40
0.85001270002540008
210
0
220
0
230
1
0
CIRCLE
5
429
100
AcDbEntity
8
0
100
AcDbCircle
10
254.60721361442737
20
67.262230124460302
30
0
40
1.5000000000000002
210
0
220
0
230
1
0
CIRCLE
5
430
100
AcDbEntity
8
0
100
AcDbCircle
10
252.87589535179092
20
65.011226822453636
30
0
40
0.85001270002540008
210
0
220
0
230
1
0
CIRCLE
5
431
100
AcDbEntity
8
0
100
AcDbCircle
10
261.3251968503937
20
68.543916687833431
30
0
40
1.5000000000000002
210
0
220
0
230
1
0
CIRCLE
5
432
100
AcDbEntity
8
0
100
AcDbCircle
10
257.8637541275084
20
64.042443484887031
30
0
40
2
210
0
220
0
230
1
0
CIRCLE
5
433
100
AcDbEntity
8
0
100
AcDbCircle
10
262.84922529845085
20
63.07259334518676
30
0
40
0.85001270002540008
210
0
220
0
230
1
0
CIRCLE
5
434
100
AcDbEntity
8
0
100
AcDbCircle
10
228.67104394208786
20
58.366649733299482
30
0
40
1.1000000000000001
210
0
220
0
230
1
0
CIRCLE
5
435
100
AcDbEntity
8
0
100
AcDbCircle
10
221.86814833629657
20
48.371501143002327
30
0
40
1.5000000000000002
210
0
220
0
230
1
0
CIRCLE
5
436
100
AcDbEntity
8
0
100
AcDbCircle
10
170.9513081026162
20
36.783947167894439
30
0
40
1.5000000000000002
210
0
220
0
230
1
0
CIRCLE
5
437
100
AcDbEntity
8
0
100
AcDbCircle
10
194.56035052070092
20
45.471602743205501
30
0
40
1.5000000000000002
210
0
220
0
230
1
0
CIRCLE
5
438
100
AcDbEntity
8
0
100
AcDbCircle
10
215.51813563627121
20
45.831496062992194
30
0
40
1.5000000000000002
210
0
220
0
230
1
0
CIRCLE
5
439
100
AcDbEntity
8
0
100
AcDbCircle
10
214.24813309626617
20
43.291490982981948
30
0
40
0.85001270002540008
210
0
220
0
230
1
0
CIRCLE
5
440
100
AcDbEntity
8
0
100
AcDbCircle
10
219.32923545847098
20
43.292227584455183
30
0
40
2
210
0
220
0
230
1
0
CIRCLE
5
441
100
AcDbEntity
8
0
100
AcDbCircle
10
189.08412496825008
20
41.374650749301509
30
0
40
1.5000000000000002
210
0
220
0
230
1
0
CIRCLE
5
442
100
AcDbEntity
8
0
100
AcDbCircle
10
188.51478282956575
20
38.592506985013976
30
0
40
0.85001270002540008
210
0
220
0
230
1
0
CIRCLE
5
443
100
AcDbEntity
8
0
100
AcDbCircle
10
193.42255524511057
20
39.908305816611687
30
0
40
2
210
0
220
0
230
1
0
CIRCLE
5
444
100
AcDbEntity
8
0
100
AcDbCircle
10
198.32860045720099
20
41.22209804419618
30
0
40
0.85001270002540008
210
0
220
0
230
1
0
CIRCLE
5
445
100
AcDbEntity
8
0
100
AcDbCircle
10
166.72204724409448
20
31.409245618491241
30
0
40
1.5000000000000002
210
0
220
0
230
1
0
CIRCLE
5
446
100
AcDbEntity
8
0
100
AcDbCircle
10
175.69100838201663
20
33.654533909067823
30
0
40
0.85001270002540008
210
0
220
0
230
1
0
CIRCLE
5
447
100
AcDbEntity
8
0
100
AcDbCircle
10
171.29215138430277
20
31.115722631445237
30
0
40
2
210
0
220
0
230
1
0
CIRCLE
5
448
100
AcDbEntity
8
0
100
AcDbCircle
10
166.89217678435375
20
28.574549149098296
30
0
40
0.85001270002540008
210
0
220
0
230
1
0
CIRCLE
5
449
100
AcDbEntity
8
0
100
AcDbCircle
10
149.78740157480317
20
25.777114554229112
30
0
40
1.1000000000000001
210
0
220
0
230
1
0
CIRCLE
5
450
100
AcDbEntity
8
0
100
AcDbCircle
10
224.40815341630673
20
43.291490982981948
30
0
40
0.85001270002540008
210
0
220
0
230
1
0
LWPOLYLINE
5
451
100
AcDbEntity
8
0
100
AcDbPolyline
90
4
70
1
43
0.0
10
28.918262636525238
20
94.655880111760212
10
29.250749301498672
20
113.70302260604524
10
48.297891795783698
20
113.37053594107195
10
47.965405130810268
20
94.323393446786895
0
LINE
5
452
100
AcDbEntity
8
0
100
AcDbLine
10
33.731013462027022
20
111.09941579883161
30
0
11
31.731318262636485
21
111.13431546863104
31
0
0
LINE
5
453
100
AcDbEntity
8
0
100
AcDbLine
10
31.731318262636485
20
111.13431546863104
30
0
11
31.696393192786445
21
109.13462026924059
31
0
0
LINE
5
454
100
AcDbEntity
8
0
100
AcDbLine
10
31.48696977393957
20
97.136449072898117
30
0
11
33.486664973330122
21
97.101524003048098
31
0
0
LINE
5
455
100
AcDbEntity
8
0
100
AcDbLine
10
31.521869443738982
20
99.136144272288576
30
0
11
31.48696977393957
21
97.136449072898117
31
0
0
LINE
5
456
100
AcDbEntity
8
0
100
AcDbLine
10
43.485140970281925
20
96.927000254000518
30
0
11
45.484836169672462
21
96.892100584201231
31
0
0
LINE
5
457
100
AcDbEntity
8
0
100
AcDbLine
10
45.484836169672462
20
96.892100584201231
30
0
11
45.519761239522502
21
98.891795783591633
31
0
0
LINE
5
458
100
AcDbEntity
8
0
100
AcDbLine
10
45.729184658369149
20
110.88996697993402
30
0
11
45.694284988569969
21
108.89027178054356
31
0
0
LINE
5
459
100
AcDbEntity
8
0
100
AcDbLine
10
43.729489458978826
20
110.92489204978418
30
0
11
45.729184658369149
21
110.88996697993402
31
0
0
LWPOLYLINE
5
460
100
AcDbEntity
8
0
100
AcDbPolyline
90
4
70
1
43
0.0
10
48.427787655575464
20
117.13202946405897
10
67.474930149860256
20
116.79954279908566
10
67.142443484886826
20
97.752400304800645
10
48.095300990602041
20
98.084886969773976
0
LINE
5
461
100
AcDbEntity
8
0
100
AcDbLine
10
52.908051816103587
20
114.52842265684538
30
0
11
50.908356616713263
21
114.56332232664478
31
0
0
LINE
5
462
100
AcDbEntity
8
0
100
AcDbLine
10
50.908356616713263
20
114.56332232664478
30
0
11
50.87343154686323
21
112.56362712725435
31
0
0
LINE
5
463
100
AcDbEntity
8
0
100
AcDbLine
10
50.664008128016356
20
100.56545593091188
30
0
11
52.663703327406893
21
100.53053086106173
31
0
0
LINE
5
464
100
AcDbEntity
8
0
100
AcDbLine
10
50.698907797815551
20
102.56515113030231
30
0
11
50.664008128016356
21
100.56545593091188
31
0
0
LINE
5
465
100
AcDbEntity
8
0
100
AcDbLine
10
62.662179324358711
20
100.35600711201425
30
0
11
64.66187452374902
21
100.32110744221485
31
0
0
LINE
5
466
100
AcDbEntity
8
0
100
AcDbLine
10
64.66187452374902
20
100.32110744221485
30
0
11
64.69679959359928
21
102.3208026416053
31
0
0
LINE
5
467
100
AcDbEntity
8
0
100
AcDbLine
10
62.906527813055618
20
114.35389890779788
30
0
11
64.906223012445921
21
114.31897383794775
31
0
0
LINE
5
468
100
AcDbEntity
8
0
100
AcDbLine
10
64.906223012445921
20
114.31897383794775
30
0
11
64.871323342646747
21
112.31927863855732
31
0
0
LWPOLYLINE
5
469
100
AcDbEntity
8
0
100
AcDbPolyline
90
4
70
1
43
0.0
10
69.013766827533573
20
121.79946659893325
10
88.01739903479826
20
120.47061214122436
10
86.688544577089289
20
101.46697993395992
10
67.684912369824588
20
102.79583439166879
0
LINE
5
470
100
AcDbEntity
8
0
100
AcDbLine
10
73.351638303276559
20
118.96494792989586
30
0
11
71.356515113030127
21
119.10447040894087
31
0
0
LINE
5
471
100
AcDbEntity
8
0
100
AcDbLine
10
71.356515113030127
20
119.10447040894087
30
0
11
71.216992633985228
21
117.10934721869444
31
0
0
LINE
5
472
100
AcDbEntity
8
0
100
AcDbLine
10
70.519431038862194
20
107.13370586741179
30
0
11
70.379908559817068
21
105.13858267716545
31
0
0
LINE
5
473
100
AcDbEntity
8
0
100
AcDbLine
10
70.379908559817068
20
105.13858267716545
30
0
11
72.375031750063499
21
104.99906019812045
31
0
0
LINE
5
474
100
AcDbEntity
8
0
100
AcDbLine
10
82.35067310134626
20
104.3014986029973
30
0
11
84.34579629159272
21
104.16197612395229
31
0
0
LINE
5
475
100
AcDbEntity
8
0
100
AcDbLine
10
84.34579629159272
20
104.16197612395229
30
0
11
84.485318770637605
21
106.15709931419872
31
0
0
LINE
5
476
100
AcDbEntity
8
0
100
AcDbLine
10
83.32727965455932
20
118.26738633477274
30
0
11
85.322402844805779
21
118.12786385572771
31
0
0
LINE
5
477
100
AcDbEntity
8
0
100
AcDbLine
10
85.322402844805779
20
118.12786385572771
30
0
11
85.182880365760653
21
116.13274066548128
31
0
0
LWPOLYLINE
5
478
100
AcDbEntity
8
0
100
AcDbPolyline
90
4
70
1
43
0.0
10
107.70243840487709
20
114.5016002032005
10
106.3735839471681
20
95.497967995936065
10
87.369951739903428
20
96.826822453644922
10
88.698806197612384
20
115.83045466090937
0
LINE
5
479
100
AcDbEntity
8
0
100
AcDbLine
10
93.036677673355371
20
112.99593599187202
30
0
11
91.041554483108939
21
113.13545847091702
31
0
0
LINE
5
480
100
AcDbEntity
8
0
100
AcDbLine
10
91.041554483108939
20
113.13545847091702
30
0
11
90.902032004064054
21
111.14033528067057
31
0
0
LINE
5
481
100
AcDbEntity
8
0
100
AcDbLine
10
90.064947929895879
20
99.169570739141605
30
0
11
92.060071120142084
21
99.030048260096564
31
0
0
LINE
5
482
100
AcDbEntity
8
0
100
AcDbLine
10
90.204470408941006
20
101.16469392938791
30
0
11
90.064947929895879
21
99.169570739141605
31
0
0
LINE
5
483
100
AcDbEntity
8
0
100
AcDbLine
10
104.03083566167153
20
98.192964185928417
30
0
11
104.17035814071642
21
100.18808737617485
31
0
0
LINE
5
484
100
AcDbEntity
8
0
100
AcDbLine
10
102.03571247142507
20
98.33248666497343
30
0
11
104.03083566167153
21
98.192964185928417
31
0
0
LINE
5
485
100
AcDbEntity
8
0
100
AcDbLine
10
105.00744221488461
20
112.15885191770384
30
0
11
104.86791973583945
21
110.16372872745741
31
0
0
LINE
5
486
100
AcDbEntity
8
0
100
AcDbLine
10
103.01231902463817
20
112.29837439674887
30
0
11
105.00744221488461
21
112.15885191770384
31
0
0
LWPOLYLINE
5
487
100
AcDbEntity
8
0
100
AcDbPolyline
90
4
70
1
43
0.0
10
125.62585725171448
20
94.456286512573143
10
106.64831089662178
20
96.116586233172512
10
108.30861061722138
20
115.09413258826521
10
127.28615697231407
20
113.43383286766573
0
LINE
5
488
100
AcDbEntity
8
0
100
AcDbLine
10
110.60396240792488
20
112.3586741173483
30
0
11
110.42964185928372
21
110.36626873253749
31
0
0
LINE
5
489
100
AcDbEntity
8
0
100
AcDbLine
10
112.59634239268486
20
112.18435356870725
30
0
11
110.60396240792488
21
112.3586741173483
31
0
0
LINE
5
490
100
AcDbEntity
8
0
100
AcDbLine
10
109.38376936753868
20
98.411938023876019
30
0
11
111.3761747523497
21
98.237617475234941
31
0
0
LINE
5
491
100
AcDbEntity
8
0
100
AcDbLine
10
109.55808991618005
20
100.4043180086361
30
0
11
109.38376936753868
21
98.411938023876019
31
0
0
LINE
5
492
100
AcDbEntity
8
0
100
AcDbLine
10
123.33050546101093
20
97.191744983490054
30
0
11
123.50482600965211
21
99.18415036830072
31
0
0
LINE
5
493
100
AcDbEntity
8
0
100
AcDbLine
10
121.33812547625099
20
97.366065532131074
30
0
11
123.33050546101093
21
97.191744983490054
31
0
0
LINE
5
494
100
AcDbEntity
8
0
100
AcDbLine
10
124.55069850139694
20
111.13848107696221
30
0
11
124.37637795275577
21
109.14610109220226
31
0
0
LINE
5
495
100
AcDbEntity
8
0
100
AcDbLine
10
122.55829311658614
20
111.31280162560324
30
0
11
124.55069850139694
21
111.13848107696221
31
0
0
LWPOLYLINE
5
496
100
AcDbEntity
8
0
100
AcDbPolyline
90
4
70
1
43
0.0
10
192.81828803657618
20
96.116586233172512
10
173.84074168148342
20
94.456286512573143
10
172.18044196088383
20
113.43383286766573
10
191.15798831597655
20
115.09413258826521
0
LINE
5
497
100
AcDbEntity
8
0
100
AcDbLine
10
176.90830581661186
20
111.31280162560324
30
0
11
174.91590043180099
21
111.13848107696221
31
0
0
LINE
5
498
100
AcDbEntity
8
0
100
AcDbLine
10
174.91590043180099
20
111.13848107696221
30
0
11
175.09022098044215
21
109.14610109220226
31
0
0
LINE
5
499
100
AcDbEntity
8
0
100
AcDbLine
10
176.13609347218701
20
97.191744983490054
30
0
11
178.12847345694701
21
97.366065532131074
31
0
0
LINE
5
500
100
AcDbEntity
8
0
100
AcDbLine
10
175.96177292354579
20
99.18415036830072
30
0
11
176.13609347218701
21
97.191744983490054
31
0
0
LINE
5
501
100
AcDbEntity
8
0
100
AcDbLine
10
190.08282956565932
20
98.411938023876019
30
0
11
189.90850901701788
21
100.4043180086361
31
0
0
LINE
5
502
100
AcDbEntity
8
0
100
AcDbLine
10
188.09042418084826
20
98.237617475234941
30
0
11
190.08282956565932
21
98.411938023876019
31
0
0
LINE
5
503
100
AcDbEntity
8
0
100
AcDbLine
10
188.86263652527302
20
112.3586741173483
30
0
11
189.03695707391418
21
110.36626873253749
31
0
0
LINE
5
504
100
AcDbEntity
8
0
100
AcDbLine
10
186.87025654051308
20
112.18435356870725
30
0
11
188.86263652527302
21
112.3586741173483
31
0
0
LWPOLYLINE
5
505
100
AcDbEntity
8
0
100
AcDbPolyline
90
4
70
1
43
0.0
10
210.64079248158509
20
115.83045466090937
10
211.96964693929408
20
96.826822453644922
10
192.96601473202941
20
95.497967995936065
10
191.63716027432042
20
114.5016002032005
0
LINE
5
506
100
AcDbEntity
8
0
100
AcDbLine
10
196.32727965455933
20
112.29837439674887
30
0
11
194.33215646431293
21
112.15885191770384
31
0
0
LINE
5
507
100
AcDbEntity
8
0
100
AcDbLine
10
194.33215646431293
20
112.15885191770384
30
0
11
194.47167894335806
21
110.16372872745741
31
0
0
LINE
5
508
100
AcDbEntity
8
0
100
AcDbLine
10
195.30876301752599
20
98.192964185928417
30
0
11
197.30388620777239
21
98.33248666497343
31
0
0
LINE
5
509
100
AcDbEntity
8
0
100
AcDbLine
10
195.16924053848103
20
100.18808737617485
30
0
11
195.30876301752599
21
98.192964185928417
31
0
0
LINE
5
510
100
AcDbEntity
8
0
100
AcDbLine
10
209.2746507493016
20
99.169570739141605
30
0
11
209.13512827025647
21
101.16469392938791
31
0
0
LINE
5
511
100
AcDbEntity
8
0
100
AcDbLine
10
207.27952755905517
20
99.030048260096564
30
0
11
209.2746507493016
21
99.169570739141605
31
0
0
LINE
5
512
100
AcDbEntity
8
0
100
AcDbLine
10
206.30292100584214
20
112.99593599187202
30
0
11
208.2980441960886
21
113.13545847091702
31
0
0
LINE
5
513
100
AcDbEntity
8
0
100
AcDbLine
10
208.2980441960886
20
113.13545847091702
30
0
11
208.43756667513347
21
111.14033528067057
31
0
0
LWPOLYLINE
5
514
100
AcDbEntity
8
0
100
AcDbPolyline
90
4
70
1
43
0.0
10
231.78168656337337
20
102.79583439166879
10
212.77805435610873
20
101.46697993395992
10
211.44919989839968
20
120.47061214122436
10
230.45283210566438
20
121.79946659893325
0
LINE
5
515
100
AcDbEntity
8
0
100
AcDbLine
10
214.14419608839214
20
118.12786385572771
30
0
11
214.28371856743735
21
116.13274066548128
31
0
0
LINE
5
516
100
AcDbEntity
8
0
100
AcDbLine
10
216.13931927863862
20
118.26738633477274
30
0
11
214.14419608839214
21
118.12786385572771
31
0
0
LINE
5
517
100
AcDbEntity
8
0
100
AcDbLine
10
215.1208026416052
20
104.16197612395229
30
0
11
217.11592583185165
21
104.3014986029973
31
0
0
LINE
5
518
100
AcDbEntity
8
0
100
AcDbLine
10
214.98128016256032
20
106.15709931419872
30
0
11
215.1208026416052
21
104.16197612395229
31
0
0
LINE
5
519
100
AcDbEntity
8
0
100
AcDbLine
10
229.08669037338089
20
105.13858267716545
30
0
11
228.94716789433573
21
107.13370586741179
31
0
0
LINE
5
520
100
AcDbEntity
8
0
100
AcDbLine
10
227.09156718313443
20
104.99906019812045
30
0
11
229.08669037338089
21
105.13858267716545
31
0
0
LINE
5
521
100
AcDbEntity
8
0
100
AcDbLine
10
226.11496062992137
20
118.96494792989586
30
0
11
228.1100838201678
21
119.10447040894087
31
0
0
LINE
5
522
100
AcDbEntity
8
0
100
AcDbLine
10
228.1100838201678
20
119.10447040894087
30
0
11
228.24960629921267
21
117.10934721869444
31
0
0
LWPOLYLINE
5
523
100
AcDbEntity
8
0
100
AcDbPolyline
90
4
70
1
43
0.0
10
251.03881127762247
20
117.13202946405897
10
251.37129794259593
20
98.084886969773976
10
232.3241554483111
20
97.752400304800645
10
231.9916687833377
20
116.79954279908566
0
LINE
5
524
100
AcDbEntity
8
0
100
AcDbLine
10
236.56007112014237
20
114.35389890779788
30
0
11
234.56037592075202
21
114.31897383794775
31
0
0
LINE
5
525
100
AcDbEntity
8
0
100
AcDbLine
10
234.56037592075202
20
114.31897383794775
30
0
11
234.59527559055118
21
112.31927863855732
31
0
0
LINE
5
526
100
AcDbEntity
8
0
100
AcDbLine
10
234.80472440944891
20
100.32110744221485
30
0
11
236.80441960883925
21
100.35600711201425
31
0
0
LINE
5
527
100
AcDbEntity
8
0
100
AcDbLine
10
234.76979933959865
20
102.3208026416053
30
0
11
234.80472440944891
21
100.32110744221485
31
0
0
LINE
5
528
100
AcDbEntity
8
0
100
AcDbLine
10
246.80289560579101
20
100.53053086106173
30
0
11
248.80259080518158
21
100.56545593091188
31
0
0
LINE
5
529
100
AcDbEntity
8
0
100
AcDbLine
10
248.80259080518158
20
100.56545593091188
30
0
11
248.76769113538245
21
102.56515113030231
31
0
0
LINE
5
530
100
AcDbEntity
8
0
100
AcDbLine
10
246.55854711709438
20
114.52842265684538
30
0
11
248.55824231648469
21
114.56332232664478
31
0
0
LINE
5
531
100
AcDbEntity
8
0
100
AcDbLine
10
248.55824231648469
20
114.56332232664478
30
0
11
248.5931673863347
21
112.56362712725435
31
0
0
LWPOLYLINE
5
532
100
AcDbEntity
8
0
100
AcDbPolyline
90
4
70
1
43
0.0
10
270.21584963169931
20
113.70302260604524
10
270.54833629667269
20
94.655880111760212
10
251.50119380238772
20
94.323393446786895
10
251.16870713741429
20
113.37053594107195
0
LINE
5
533
100
AcDbEntity
8
0
100
AcDbLine
10
253.73741427482884
20
110.88996697993402
30
0
11
253.77231394462797
21
108.89027178054356
31
0
0
LINE
5
534
100
AcDbEntity
8
0
100
AcDbLine
10
255.73710947421912
20
110.92489204978418
30
0
11
253.73741427482884
21
110.88996697993402
31
0
0
LINE
5
535
100
AcDbEntity
8
0
100
AcDbLine
10
253.94683769367546
20
98.891795783591633
30
0
11
253.98176276352547
21
96.892100584201231
31
0
0
LINE
5
536
100
AcDbEntity
8
0
100
AcDbLine
10
253.98176276352547
20
96.892100584201231
30
0
11
255.98145796291601
21
96.927000254000518
31
0
0
LINE
5
537
100
AcDbEntity
8
0
100
AcDbLine
10
265.97993395986782
20
97.101524003048098
30
0
11
267.97962915925837
21
97.136449072898117
31
0
0
LINE
5
538
100
AcDbEntity
8
0
100
AcDbLine
10
267.97962915925837
20
97.136449072898117
30
0
11
267.94472948945895
21
99.136144272288576
31
0
0
LINE
5
539
100
AcDbEntity
8
0
100
AcDbLine
10
267.73528067056145
20
111.13431546863104
30
0
11
267.77020574041148
21
109.13462026924059
31
0
0
LINE
5
540
100
AcDbEntity
8
0
100
AcDbLine
10
265.73558547117091
20
111.09941579883161
30
0
11
267.73528067056145
21
111.13431546863104
31
0
0
LWPOLYLINE
5
541
100
AcDbEntity
8
0
100
AcDbPolyline
90
4
70
1
43
0.0
10
49.077825755651467
20
75.148387096774172
10
30.063296926593924
20
73.985420370840771
10
28.900330200660392
20
92.99994919989841
10
47.914859029718173
20
94.162915925831854
0
LINE
5
542
100
AcDbEntity
8
0
100
AcDbLine
10
33.571069342138571
20
90.755880111760234
30
0
11
31.574803149606399
21
90.633782067564198
31
0
0
LINE
5
543
100
AcDbEntity
8
0
100
AcDbLine
10
31.574803149606399
20
90.633782067564198
30
0
11
31.696875793751591
21
88.637515875031795
31
0
0
LINE
5
544
100
AcDbEntity
8
0
100
AcDbLine
10
32.307366014731997
20
78.65615951231905
30
0
11
32.429464058928033
21
76.659893319786647
31
0
0
LINE
5
545
100
AcDbEntity
8
0
100
AcDbLine
10
32.429464058928033
20
76.659893319786647
30
0
11
34.425730251460436
21
76.781965963931953
31
0
0
LINE
5
546
100
AcDbEntity
8
0
100
AcDbLine
10
46.40335280670547
20
77.514554229108413
30
0
11
46.281280162560279
21
79.510820421640801
31
0
0
LINE
5
547
100
AcDbEntity
8
0
100
AcDbLine
10
44.407086614173295
20
77.392456184912476
30
0
11
46.40335280670547
21
77.514554229108413
31
0
0
LINE
5
548
100
AcDbEntity
8
0
100
AcDbLine
10
43.55242570485143
20
91.366370332740772
30
0
11
45.548691897383826
21
91.488442976885963
31
0
0
LINE
5
549
100
AcDbEntity
8
0
100
AcDbLine
10
45.548691897383826
20
91.488442976885963
30
0
11
45.670789941579876
21
89.492176784353546
31
0
0
LWPOLYLINE
5
550
100
AcDbEntity
8
0
100
AcDbPolyline
90
4
70
1
43
0.0
10
49.240335280670486
20
77.668427736855506
10
48.077368554737177
20
96.682956565913173
10
67.091897383794731
20
97.845923291846617
10
68.25486410972826
20
78.831394462788921
0
LINE
5
551
100
AcDbEntity
8
0
100
AcDbLine
10
52.748107696215371
20
94.438887477774983
30
0
11
50.751841503683181
21
94.316789433578947
31
0
0
LINE
5
552
100
AcDbEntity
8
0
100
AcDbLine
10
50.751841503683181
20
94.316789433578947
30
0
11
50.873914147828366
21
92.320523241046558
31
0
0
LINE
5
553
100
AcDbEntity
8
0
100
AcDbLine
10
51.606502413004819
20
80.342900685801411
30
0
11
53.602768605537214
21
80.464973329946702
31
0
0
LINE
5
554
100
AcDbEntity
8
0
100
AcDbLine
10
51.484404368808789
20
82.339166878333799
30
0
11
51.606502413004819
21
80.342900685801411
31
0
0
LINE
5
555
100
AcDbEntity
8
0
100
AcDbLine
10
65.580391160782256
20
81.197561595123176
30
0
11
65.458318516637064
21
83.193827787655565
31
0
0
LINE
5
556
100
AcDbEntity
8
0
100
AcDbLine
10
63.584124968250073
20
81.075463550927225
30
0
11
65.580391160782256
21
81.197561595123176
31
0
0
LINE
5
557
100
AcDbEntity
8
0
100
AcDbLine
10
62.72946405892823
20
95.049377698755507
30
0
11
64.725730251460618
21
95.171450342900698
31
0
0
LINE
5
558
100
AcDbEntity
8
0
100
AcDbLine
10
64.725730251460618
20
95.171450342900698
30
0
11
64.847828295656655
21
93.175184150368295
31
0
0
LWPOLYLINE
5
559
100
AcDbEntity
8
0
100
AcDbPolyline
90
4
70
1
43
0.0
10
67.618516637033281
20
100.75397510795028
10
86.656946913893762
20
101.41882143764292
10
87.321793243586413
20
82.380391160782324
10
68.283362966726145
20
81.715544831089687
0
LINE
5
560
100
AcDbEntity
8
0
100
AcDbLine
10
70.230124460249044
20
98.318618237236493
30
0
11
70.299923799847647
21
96.319837439674984
31
0
0
LINE
5
561
100
AcDbEntity
8
0
100
AcDbLine
10
72.228905257810538
20
98.388417576835195
30
0
11
70.230124460249044
21
98.318618237236493
31
0
0
LINE
5
562
100
AcDbEntity
8
0
100
AcDbLine
10
70.718719837439721
20
84.327152654305337
30
0
11
72.717500635001443
21
84.39695199390394
31
0
0
LINE
5
563
100
AcDbEntity
8
0
100
AcDbLine
10
70.648920497841132
20
86.325933451866931
30
0
11
70.718719837439721
21
84.327152654305337
31
0
0
LINE
5
564
100
AcDbEntity
8
0
100
AcDbLine
10
82.711404622809141
20
84.745948691897411
30
0
11
84.710185420370848
21
84.815748031496128
31
0
0
LINE
5
565
100
AcDbEntity
8
0
100
AcDbLine
10
84.710185420370848
20
84.815748031496128
30
0
11
84.640386080772032
21
86.814528829057622
31
0
0
LINE
5
566
100
AcDbEntity
8
0
100
AcDbLine
10
82.222809245618464
20
98.737414274828694
30
0
11
84.221590043179958
21
98.807213614427297
31
0
0
LINE
5
567
100
AcDbEntity
8
0
100
AcDbLine
10
84.221590043179958
20
98.807213614427297
30
0
11
84.291389382778803
21
96.808432816865647
31
0
0
LWPOLYLINE
5
568
100
AcDbEntity
8
0
100
AcDbPolyline
90
4
70
1
43
0.0
10
87.398729997460123
20
94.611633223266523
10
106.42265684531368
20
95.608636017272048
10
107.41965963931921
20
76.584709169418375
10
88.395732791465662
20
75.58770637541285
0
LINE
5
569
100
AcDbEntity
8
0
100
AcDbLine
10
90.052451104902275
20
92.222225044450155
30
0
11
90.157099314198831
21
90.224968249936651
31
0
0
LINE
5
570
100
AcDbEntity
8
0
100
AcDbLine
10
92.049707899415807
20
92.326898653797343
30
0
11
90.052451104902275
21
92.222225044450155
31
0
0
LINE
5
571
100
AcDbEntity
8
0
100
AcDbLine
10
90.680467360934699
20
80.23868427736852
30
0
11
90.785140970281887
21
78.241427482854988
31
0
0
LINE
5
572
100
AcDbEntity
8
0
100
AcDbLine
10
90.785140970281887
20
78.241427482854988
30
0
11
92.782397764795647
21
78.346075692151445
31
0
0
LINE
5
573
100
AcDbEntity
8
0
100
AcDbLine
10
102.76868173736352
20
78.869443738887526
30
0
11
104.76593853187705
21
78.974117348234699
31
0
0
LINE
5
574
100
AcDbEntity
8
0
100
AcDbLine
10
104.76593853187705
20
78.974117348234699
30
0
11
104.66129032258053
21
80.971374142748246
31
0
0
LINE
5
575
100
AcDbEntity
8
0
100
AcDbLine
10
104.03324866649747
20
92.954914909829768
30
0
11
104.13792227584464
21
90.957658115316235
31
0
0
LINE
5
576
100
AcDbEntity
8
0
100
AcDbLine
10
102.03599187198371
20
92.850266700533425
30
0
11
104.03324866649747
21
92.954914909829768
31
0
0
LWPOLYLINE
5
577
100
AcDbEntity
8
0
100
AcDbPolyline
90
4
70
1
43
0.0
10
125.49883159766321
20
94.266116332232741
10
127.15918211836424
20
75.2885699771399
10
108.18163576327153
20
73.628219456438956
10
106.52128524257068
20
92.605765811531711
0
LINE
5
578
100
AcDbEntity
8
0
100
AcDbLine
10
111.24914909829819
20
90.484759969519914
30
0
11
109.25676911353821
21
90.310439420878879
31
0
0
LINE
5
579
100
AcDbEntity
8
0
100
AcDbLine
10
109.25676911353821
20
90.310439420878879
30
0
11
109.43108966217936
21
88.318034036068056
31
0
0
LINE
5
580
100
AcDbEntity
8
0
100
AcDbLine
10
110.47696215392421
20
76.363703327406697
30
0
11
112.46936753873526
21
76.53802387604776
31
0
0
LINE
5
581
100
AcDbEntity
8
0
100
AcDbLine
10
110.30264160528306
20
78.356083312166675
30
0
11
110.47696215392421
21
76.363703327406697
31
0
0
LINE
5
582
100
AcDbEntity
8
0
100
AcDbLine
10
124.4236982473965
20
77.583896367792704
30
0
11
124.24937769875534
21
79.576301752603626
31
0
0
LINE
5
583
100
AcDbEntity
8
0
100
AcDbLine
10
122.43131826263651
20
77.409575819151655
30
0
11
124.4236982473965
21
77.583896367792704
31
0
0
LINE
5
584
100
AcDbEntity
8
0
100
AcDbLine
10
123.20350520701049
20
91.530632461264986
30
0
11
123.37782575565168
21
89.538252476505008
31
0
0
LINE
5
585
100
AcDbEntity
8
0
100
AcDbLine
10
121.2110998221997
20
91.356311912623937
30
0
11
123.20350520701049
21
91.530632461264986
31
0
0
LWPOLYLINE
5
586
100
AcDbEntity
8
0
100
AcDbPolyline
90
4
70
1
43
0.0
10
191.28496316992641
20
73.755219710439405
10
172.30741681483369
20
75.41557023114045
10
173.96776733553477
20
94.393116586233191
10
192.94531369062724
20
92.732766065532232
0
LINE
5
587
100
AcDbEntity
8
0
100
AcDbLine
10
178.25549911099827
20
91.483312166624415
30
0
11
176.26309372618746
21
91.65763271526545
31
0
0
LINE
5
588
100
AcDbEntity
8
0
100
AcDbLine
10
176.26309372618746
20
91.65763271526545
30
0
11
176.0887731775463
21
89.665252730505486
31
0
0
LINE
5
589
100
AcDbEntity
8
0
100
AcDbLine
10
175.04290068580144
20
77.710896621793268
30
0
11
177.03528067056141
21
77.536576073152219
31
0
0
LINE
5
590
100
AcDbEntity
8
0
100
AcDbLine
10
175.2172212344426
20
79.703302006604076
30
0
11
175.04290068580144
21
77.710896621793268
31
0
0
LINE
5
591
100
AcDbEntity
8
0
100
AcDbLine
10
186.99723139446269
20
76.665024130048195
30
0
11
188.98963677927372
21
76.490703581407161
31
0
0
LINE
5
592
100
AcDbEntity
8
0
100
AcDbLine
10
188.98963677927372
20
76.490703581407161
30
0
11
189.16395732791494
21
78.483083566167238
31
0
0
LINE
5
593
100
AcDbEntity
8
0
100
AcDbLine
10
188.21744983489975
20
90.611760223520491
30
0
11
190.20982981965972
21
90.437439674879442
31
0
0
LINE
5
594
100
AcDbEntity
8
0
100
AcDbLine
10
190.20982981965972
20
90.437439674879442
30
0
11
190.03550927101855
21
88.445034290068506
31
0
0
LWPOLYLINE
5
595
100
AcDbEntity
8
0
100
AcDbPolyline
90
4
70
1
43
0.0
10
211.0708661417323
20
75.460706121412272
10
192.04693929387872
20
76.457708915417925
10
193.04394208788426
20
95.481635763271584
10
212.06786893573781
20
94.484632969265917
0
LINE
5
596
100
AcDbEntity
8
0
100
AcDbLine
10
197.43060706121426
20
92.723266446532989
30
0
11
195.4333502667005
21
92.827940055880163
31
0
0
LINE
5
597
100
AcDbEntity
8
0
100
AcDbLine
10
195.4333502667005
20
92.827940055880163
30
0
11
195.32867665735336
21
90.830657861315814
31
0
0
LINE
5
598
100
AcDbEntity
8
0
100
AcDbLine
10
194.70063500127003
20
78.84711709423425
30
0
11
196.69791719583441
21
78.742443484886948
31
0
0
LINE
5
599
100
AcDbEntity
8
0
100
AcDbLine
10
194.80530861061749
20
80.844373888747782
30
0
11
194.70063500127003
21
78.84711709423425
31
0
0
LINE
5
600
100
AcDbEntity
8
0
100
AcDbLine
10
208.68145796291614
20
78.114401828803722
30
0
11
208.78613157226326
21
80.111684023368056
31
0
0
LINE
5
601
100
AcDbEntity
8
0
100
AcDbLine
10
206.68420116840235
20
78.219075438150867
30
0
11
208.68145796291614
21
78.114401828803722
31
0
0
LINE
5
602
100
AcDbEntity
8
0
100
AcDbLine
10
207.41689103378212
20
92.199898399796766
30
0
11
209.4141732283465
21
92.09522479044962
31
0
0
LINE
5
603
100
AcDbEntity
8
0
100
AcDbLine
10
209.4141732283465
20
92.09522479044962
30
0
11
209.30949961899913
21
90.097967995936074
31
0
0
LWPOLYLINE
5
604
100
AcDbEntity
8
0
100
AcDbPolyline
90
4
70
1
43
0.0
10
231.18323596647176
20
81.715544831089687
10
212.14480568961159
20
82.380391160782324
10
212.80965201930417
20
101.41882143764292
10
231.84808229616465
20
100.75397510795028
0
LINE
5
605
100
AcDbEntity
8
0
100
AcDbLine
10
215.245008890018
20
98.807213614427297
30
0
11
215.17520955041914
21
96.808432816865647
31
0
0
LINE
5
606
100
AcDbEntity
8
0
100
AcDbLine
10
217.24378968757944
20
98.737414274828694
30
0
11
215.245008890018
21
98.807213614427297
31
0
0
LINE
5
607
100
AcDbEntity
8
0
100
AcDbLine
10
214.75641351282715
20
84.815748031496128
30
0
11
216.75519431038879
21
84.745948691897411
31
0
0
LINE
5
608
100
AcDbEntity
8
0
100
AcDbLine
10
214.82621285242595
20
86.814528829057622
30
0
11
214.75641351282715
21
84.815748031496128
31
0
0
LINE
5
609
100
AcDbEntity
8
0
100
AcDbLine
10
226.74909829819651
20
84.39695199390394
30
0
11
228.74787909575818
21
84.327152654305337
31
0
0
LINE
5
610
100
AcDbEntity
8
0
100
AcDbLine
10
228.74787909575818
20
84.327152654305337
30
0
11
228.81767843535684
21
86.325933451866931
31
0
0
LINE
5
611
100
AcDbEntity
8
0
100
AcDbLine
10
229.23647447294888
20
98.318618237236493
30
0
11
229.16667513335031
21
96.319837439674984
31
0
0
LINE
5
612
100
AcDbEntity
8
0
100
AcDbLine
10
227.23769367538745
20
98.388417576835195
30
0
11
229.23647447294888
21
98.318618237236493
31
0
0
LWPOLYLINE
5
613
100
AcDbEntity
8
0
100
AcDbPolyline
90
4
70
1
43
0.0
10
251.38923037846072
20
96.682956565913173
10
250.22626365252745
20
77.668427736855506
10
231.21173482346973
20
78.831394462788921
10
232.37470154940323
20
97.845923291846617
0
LINE
5
614
100
AcDbEntity
8
0
100
AcDbLine
10
236.73713487426969
20
95.049377698755507
30
0
11
234.74086868173737
21
95.171450342900698
31
0
0
LINE
5
615
100
AcDbEntity
8
0
100
AcDbLine
10
234.74086868173737
20
95.171450342900698
30
0
11
234.6187706375413
21
93.175184150368295
31
0
0
LINE
5
616
100
AcDbEntity
8
0
100
AcDbLine
10
233.8862077724157
20
81.197561595123176
30
0
11
235.88247396494785
21
81.075463550927225
31
0
0
LINE
5
617
100
AcDbEntity
8
0
100
AcDbLine
10
234.00828041656086
20
83.193827787655565
30
0
11
233.8862077724157
21
81.197561595123176
31
0
0
LINE
5
618
100
AcDbEntity
8
0
100
AcDbLine
10
245.86383032766068
20
80.464973329946702
30
0
11
247.86009652019314
21
80.342900685801411
31
0
0
LINE
5
619
100
AcDbEntity
8
0
100
AcDbLine
10
247.86009652019314
20
80.342900685801411
30
0
11
247.98219456438915
21
82.339166878333799
31
0
0
LINE
5
620
100
AcDbEntity
8
0
100
AcDbLine
10
248.71475742951475
20
94.316789433578947
30
0
11
248.59268478536958
21
92.320523241046558
31
0
0
LINE
5
621
100
AcDbEntity
8
0
100
AcDbLine
10
246.71849123698257
20
94.438887477774983
30
0
11
248.71475742951475
21
94.316789433578947
31
0
0
LWPOLYLINE
5
622
100
AcDbEntity
8
0
100
AcDbPolyline
90
4
70
1
43
0.0
10
251.55173990347976
20
94.162890525781137
10
270.56624333248669
20
92.99994919989841
10
269.40330200660401
20
73.985445770891488
10
250.3887985775973
20
75.148387096774172
0
LINE
5
623
100
AcDbEntity
8
0
100
AcDbLine
10
255.9141986283974
20
91.366370332740772
30
0
11
253.9179070358141
21
91.488442976885963
31
0
0
LINE
5
624
100
AcDbEntity
8
0
100
AcDbLine
10
253.9179070358141
20
91.488442976885963
30
0
11
253.79580899161809
21
89.492176784353546
31
0
0
LINE
5
625
100
AcDbEntity
8
0
100
AcDbLine
10
253.18531877063762
20
79.51084582169166
30
0
11
253.06324612649249
21
77.514554229108413
31
0
0
LINE
5
626
100
AcDbEntity
8
0
100
AcDbLine
10
253.06324612649249
20
77.514554229108413
30
0
11
255.05951231902463
21
77.392456184912476
31
0
0
LINE
5
627
100
AcDbEntity
8
0
100
AcDbLine
10
265.04084328168665
20
76.781965963931953
30
0
11
267.0371348742699
21
76.659893319786647
31
0
0
LINE
5
628
100
AcDbEntity
8
0
100
AcDbLine
10
267.0371348742699
20
76.659893319786647
30
0
11
267.15923291846593
21
78.65615951231905
31
0
0
LINE
5
629
100
AcDbEntity
8
0
100
AcDbLine
10
265.89552959105936
20
90.755880111760234
30
0
11
267.89179578359153
21
90.633782067564198
31
0
0
LINE
5
630
100
AcDbEntity
8
0
100
AcDbLine
10
267.89179578359153
20
90.633782067564198
30
0
11
267.76972313944628
21
88.63749047498095
31
0
0
LWPOLYLINE
5
631
100
AcDbEntity
8
0
100
AcDbPolyline
90
4
70
1
43
0.0
10
30.488595377190677
20
71.540690881381693
10
49.188646177292412
20
75.175615951231862
10
52.823571247142588
20
56.475565151130354
10
34.123520447040853
20
52.840640081280306
0
LINE
5
632
100
AcDbEntity
8
0
100
AcDbLine
10
33.449022098044232
20
69.543840487680995
30
0
11
33.830632461264941
21
67.580619761239518
31
0
0
LINE
5
633
100
AcDbEntity
8
0
100
AcDbLine
10
35.412293624587392
20
69.925476250952556
30
0
11
33.449022098044232
21
69.543840487680995
31
0
0
LINE
5
634
100
AcDbEntity
8
0
100
AcDbLine
10
36.120370840741771
20
55.801066802133619
30
0
11
38.083591567183021
21
56.182677165354455
31
0
0
LINE
5
635
100
AcDbEntity
8
0
100
AcDbLine
10
35.73873507747021
20
57.764338328676672
30
0
11
36.120370840741771
21
55.801066802133619
31
0
0
LINE
5
636
100
AcDbEntity
8
0
100
AcDbLine
10
47.899872999746108
20
58.090779781559611
30
0
11
49.863144526289034
21
58.472415544831051
31
0
0
LINE
5
637
100
AcDbEntity
8
0
100
AcDbLine
10
49.863144526289034
20
58.472415544831051
30
0
11
49.481534163068332
21
60.435636271272642
31
0
0
LINE
5
638
100
AcDbEntity
8
0
100
AcDbLine
10
45.228575057150238
20
71.833578867157712
30
0
11
47.191795783591708
21
72.215189230378556
31
0
0
LINE
5
639
100
AcDbEntity
8
0
100
AcDbLine
10
47.191795783591708
20
72.215189230378556
30
0
11
47.573431546863048
21
70.25191770383536
31
0
0
LWPOLYLINE
5
640
100
AcDbEntity
8
0
100
AcDbPolyline
90
4
70
1
43
0.0
10
49.417805435610937
20
75.417449834899799
10
68.17843535687075
20
78.72545085090178
10
71.486436372872731
20
59.96482092964186
10
52.725806451612939
20
56.656819913639779
0
LINE
5
641
100
AcDbEntity
8
0
100
AcDbLine
10
52.342926085852248
20
73.369265938531953
30
0
11
52.69022098044185
21
71.399618999238086
31
0
0
LINE
5
642
100
AcDbEntity
8
0
100
AcDbLine
10
54.312547625095256
20
73.716560833121648
30
0
11
52.342926085852248
21
73.369265938531953
31
0
0
LINE
5
643
100
AcDbEntity
8
0
100
AcDbLine
10
54.426695453390948
20
61.551562103124304
30
0
11
54.773990347980785
21
59.581940563881062
31
0
0
LINE
5
644
100
AcDbEntity
8
0
100
AcDbLine
10
54.773990347980785
20
59.581940563881062
30
0
11
56.743637287274623
21
59.929235458471013
31
0
0
LINE
5
645
100
AcDbEntity
8
0
100
AcDbLine
10
66.591694183388427
20
61.66570993141989
30
0
11
68.56131572263142
21
62.013004826009706
31
0
0
LINE
5
646
100
AcDbEntity
8
0
100
AcDbLine
10
68.56131572263142
20
62.013004826009706
30
0
11
68.214020828041839
21
63.982651765303572
31
0
0
LINE
5
647
100
AcDbEntity
8
0
100
AcDbLine
10
64.160604521209052
20
75.453035306070646
30
0
11
66.130251460502905
21
75.800330200660483
31
0
0
LINE
5
648
100
AcDbEntity
8
0
100
AcDbLine
10
66.130251460502905
20
75.800330200660483
30
0
11
66.477546355092727
21
73.830708661417361
31
0
0
LWPOLYLINE
5
649
100
AcDbEntity
8
0
100
AcDbPolyline
90
4
70
1
43
0.0
10
90.27294894589798
20
63.583413766827668
10
71.457429514859115
20
60.603352806705644
10
68.477368554737268
20
79.418872237744509
10
87.292887985775906
20
82.398933197866441
0
LINE
5
650
100
AcDbEntity
8
0
100
AcDbLine
10
71.366294132588351
20
77.319913639827305
30
0
11
71.679171958343886
21
75.344551689103341
31
0
0
LINE
5
651
100
AcDbEntity
8
0
100
AcDbLine
10
73.341681483362891
20
77.632791465582955
30
0
11
71.366294132588351
21
77.319913639827305
31
0
0
LINE
5
652
100
AcDbEntity
8
0
100
AcDbLine
10
73.243510287020626
20
65.467665735331479
30
0
11
73.556388112776403
21
63.492278384556712
31
0
0
LINE
5
653
100
AcDbEntity
8
0
100
AcDbLine
10
73.556388112776403
20
63.492278384556712
30
0
11
75.531750063500112
21
63.805156210312362
31
0
0
LINE
5
654
100
AcDbEntity
8
0
100
AcDbLine
10
87.38402336804667
20
65.682372364744779
30
0
11
87.071145542291092
21
67.657734315468701
31
0
0
LINE
5
655
100
AcDbEntity
8
0
100
AcDbLine
10
85.408636017272087
20
65.369494538989102
30
0
11
87.38402336804667
21
65.682372364744779
31
0
0
LINE
5
656
100
AcDbEntity
8
0
100
AcDbLine
10
83.218567437135093
20
79.197129794259695
30
0
11
85.193929387858589
21
79.510007620015358
31
0
0
LINE
5
657
100
AcDbEntity
8
0
100
AcDbLine
10
85.193929387858589
20
79.510007620015358
30
0
11
85.50680721361438
21
77.534620269240577
31
0
0
LWPOLYLINE
5
658
100
AcDbEntity
8
0
100
AcDbPolyline
90
4
70
1
43
0.0
10
88.778943357886874
20
72.614655829311687
10
107.41272542545084
20
76.57538735077469
10
111.37345694691385
20
57.941605283210613
10
92.739674879349877
20
53.980873761747603
0
LINE
5
659
100
AcDbEntity
8
0
100
AcDbLine
10
93.730099060198228
20
71.085598171196352
30
0
11
91.773787147574239
21
70.669799339598626
31
0
0
LINE
5
660
100
AcDbEntity
8
0
100
AcDbLine
10
91.773787147574239
20
70.669799339598626
30
0
11
92.189611379222697
21
68.713487426974893
31
0
0
LINE
5
661
100
AcDbEntity
8
0
100
AcDbLine
10
94.684531369062825
20
56.975717551435082
30
0
11
96.640843281686784
21
57.391541783083547
31
0
0
LINE
5
662
100
AcDbEntity
8
0
100
AcDbLine
10
94.268732537465212
20
58.932029464059035
30
0
11
94.684531369062825
21
56.975717551435082
31
0
0
LINE
5
663
100
AcDbEntity
8
0
100
AcDbLine
10
108.37861315722625
20
59.886461772923667
30
0
11
107.9627889255778
21
61.8427736855474
31
0
0
LINE
5
664
100
AcDbEntity
8
0
100
AcDbLine
10
106.42230124460252
20
59.470662941325941
30
0
11
108.37861315722625
21
59.886461772923667
31
0
0
LINE
5
665
100
AcDbEntity
8
0
100
AcDbLine
10
103.51155702311395
20
73.164719329438753
30
0
11
105.46786893573793
21
73.580543561087211
31
0
0
LINE
5
666
100
AcDbEntity
8
0
100
AcDbLine
10
105.46786893573793
20
73.580543561087211
30
0
11
105.88366776733551
21
71.624231648463251
31
0
0
LWPOLYLINE
5
667
100
AcDbEntity
8
0
100
AcDbPolyline
90
4
70
1
43
0.0
10
108.5958597917197
20
70.691897383794753
10
127.08001016002049
20
75.300508001015942
10
131.68862077724157
20
56.816357632715395
10
113.20447040894079
20
52.207747015494085
0
LINE
5
668
100
AcDbEntity
8
0
100
AcDbLine
10
113.59730759461536
20
69.336576073152173
30
0
11
111.65671831343658
21
68.852730505460954
31
0
0
LINE
5
669
100
AcDbEntity
8
0
100
AcDbLine
10
111.65671831343658
20
68.852730505460954
30
0
11
112.14056388112795
21
66.912166624333281
31
0
0
LINE
5
670
100
AcDbEntity
8
0
100
AcDbLine
10
114.55979171958349
20
57.209194818389619
30
0
11
115.04363728727456
21
55.268605537211108
31
0
0
LINE
5
671
100
AcDbEntity
8
0
100
AcDbLine
10
115.04363728727456
20
55.268605537211108
30
0
11
116.98420116840225
21
55.752451104902327
31
0
0
LINE
5
672
100
AcDbEntity
8
0
100
AcDbLine
10
128.62776225552466
20
58.655524511049066
30
0
11
128.1439166878333
21
60.596088392176846
31
0
0
LINE
5
673
100
AcDbEntity
8
0
100
AcDbLine
10
126.68717297434591
20
58.171678943357961
30
0
11
128.62776225552466
21
58.655524511049066
31
0
0
LINE
5
674
100
AcDbEntity
8
0
100
AcDbLine
10
123.30027940055902
20
71.755803911607813
30
0
11
125.24084328168648
21
72.239649479298919
31
0
0
LINE
5
675
100
AcDbEntity
8
0
100
AcDbLine
10
125.24084328168648
20
72.239649479298919
30
0
11
125.7246888493778
21
70.299060198120515
31
0
0
LWPOLYLINE
5
676
100
AcDbEntity
8
0
100
AcDbPolyline
90
4
70
1
43
0.0
10
172.38658877317746
20
75.3005334010669
10
190.87076454152907
20
70.691897383794753
10
186.26212852425715
20
52.207721615443234
10
167.77795275590557
20
56.816357632715395
0
LINE
5
677
100
AcDbEntity
8
0
100
AcDbLine
10
174.22573025146062
20
72.239649479298919
30
0
11
173.7419100838201
21
70.299060198120515
31
0
0
LINE
5
678
100
AcDbEntity
8
0
100
AcDbLine
10
176.16634493268975
20
71.755803911607813
30
0
11
174.22573025146062
21
72.239649479298919
31
0
0
LINE
5
679
100
AcDbEntity
8
0
100
AcDbLine
10
171.3226822453646
20
60.596113792227584
30
0
11
170.83883667767327
21
58.655499110998228
31
0
0
LINE
5
680
100
AcDbEntity
8
0
100
AcDbLine
10
170.83883667767327
20
58.655499110998228
30
0
11
172.77942595885204
21
58.171678943357961
31
0
0
LINE
5
681
100
AcDbEntity
8
0
100
AcDbLine
10
182.48237236474483
20
55.752451104902327
30
0
11
184.4229870459742
21
55.268605537211108
31
0
0
LINE
5
682
100
AcDbEntity
8
0
100
AcDbLine
10
184.4229870459742
20
55.268605537211108
30
0
11
184.90680721361446
21
57.209194818389619
31
0
0
LINE
5
683
100
AcDbEntity
8
0
100
AcDbLine
10
185.8692913385826
20
69.336576073152173
30
0
11
187.80988061976132
21
68.852755905511799
31
0
0
LINE
5
684
100
AcDbEntity
8
0
100
AcDbLine
10
187.80988061976132
20
68.852755905511799
30
0
11
187.32603505207004
21
66.91214122428255
31
0
0
LWPOLYLINE
5
685
100
AcDbEntity
8
0
100
AcDbPolyline
90
4
70
1
43
0.0
10
188.0931673863347
20
57.941630683261351
10
192.05389890779793
20
76.575361950723845
10
210.68763017526044
20
72.614630429260956
10
206.72689865379721
20
53.980899161798455
0
LINE
5
686
100
AcDbEntity
8
0
100
AcDbLine
10
195.95504191008402
20
73.164719329438753
30
0
11
193.99875539751091
21
73.580543561087211
31
0
0
LINE
5
687
100
AcDbEntity
8
0
100
AcDbLine
10
193.99875539751091
20
73.580543561087211
30
0
11
193.58293116586239
21
71.624257048514096
31
0
0
LINE
5
688
100
AcDbEntity
8
0
100
AcDbLine
10
191.50381000762013
20
61.8427736855474
30
0
11
191.08798577597167
21
59.886487172974405
31
0
0
LINE
5
689
100
AcDbEntity
8
0
100
AcDbLine
10
191.08798577597167
20
59.886487172974405
30
0
11
193.04427228854462
21
59.470662941325941
31
0
0
LINE
5
690
100
AcDbEntity
8
0
100
AcDbLine
10
204.78204216408426
20
56.975717551435082
30
0
11
205.19786639573272
21
58.932004064008211
31
0
0
LINE
5
691
100
AcDbEntity
8
0
100
AcDbLine
10
202.82575565151114
20
57.391541783083547
30
0
11
204.78204216408426
21
56.975717551435082
31
0
0
LINE
5
692
100
AcDbEntity
8
0
100
AcDbLine
10
207.69281178562369
20
70.669773939547909
30
0
11
207.27698755397526
21
68.713487426974893
31
0
0
LINE
5
693
100
AcDbEntity
8
0
100
AcDbLine
10
205.73652527305057
20
71.085598171196352
30
0
11
207.69281178562369
21
70.669773939547909
31
0
0
LWPOLYLINE
5
694
100
AcDbEntity
8
0
100
AcDbPolyline
90
4
70
1
43
0.0
10
212.1737363474729
20
82.398933197866441
10
230.98923037846063
20
79.418846837693764
10
228.00914401828803
20
60.603352806705644
10
209.19364998730003
20
63.583439166878406
0
LINE
5
695
100
AcDbEntity
8
0
100
AcDbLine
10
214.2726695453394
20
79.510007620015358
30
0
11
213.95979171958359
21
77.534620269240577
31
0
0
LINE
5
696
100
AcDbEntity
8
0
100
AcDbLine
10
216.24803149606282
20
79.197129794259695
30
0
11
214.2726695453394
21
79.510007620015358
31
0
0
LINE
5
697
100
AcDbEntity
8
0
100
AcDbLine
10
212.08257556515133
20
65.682372364744779
30
0
11
214.05796291592583
21
65.369494538989102
31
0
0
LINE
5
698
100
AcDbEntity
8
0
100
AcDbLine
10
212.39545339090682
20
67.657734315468701
30
0
11
212.08257556515133
21
65.682372364744779
31
0
0
LINE
5
699
100
AcDbEntity
8
0
100
AcDbLine
10
225.91021082042153
20
63.492278384556712
30
0
11
226.22308864617736
21
65.467665735331479
31
0
0
LINE
5
700
100
AcDbEntity
8
0
100
AcDbLine
10
223.93484886969787
20
63.805156210312362
30
0
11
225.91021082042153
21
63.492278384556712
31
0
0
LINE
5
701
100
AcDbEntity
8
0
100
AcDbLine
10
226.12491744983501
20
77.632791465582955
30
0
11
228.10030480060959
21
77.319913639827305
31
0
0
LINE
5
702
100
AcDbEntity
8
0
100
AcDbLine
10
228.10030480060959
20
77.319913639827305
30
0
11
227.78742697485404
21
75.344551689103341
31
0
0
LWPOLYLINE
5
703
100
AcDbEntity
8
0
100
AcDbPolyline
90
4
70
1
43
0.0
10
227.98016256032523
20
59.96482092964186
10
231.28816357632718
20
78.72545085090178
10
250.04879349758698
20
75.417449834899799
10
246.74079248158503
20
56.656819913639779
0
LINE
5
704
100
AcDbEntity
8
0
100
AcDbLine
10
233.33637287274587
20
75.800330200660483
30
0
11
232.9890525781052
21
73.830708661417361
31
0
0
LINE
5
705
100
AcDbEntity
8
0
100
AcDbLine
10
235.30596901193803
20
75.453035306070646
30
0
11
233.33637287274587
21
75.800330200660483
31
0
0
LINE
5
706
100
AcDbEntity
8
0
100
AcDbLine
10
231.25257810515609
20
63.982626365252827
30
0
11
230.90528321056652
21
62.01303022606055
31
0
0
LINE
5
707
100
AcDbEntity
8
0
100
AcDbLine
10
230.90528321056652
20
62.01303022606055
30
0
11
232.87490474980953
21
61.66570993141989
31
0
0
LINE
5
708
100
AcDbEntity
8
0
100
AcDbLine
10
244.69258318516634
20
59.581940563881062
30
0
11
245.03990347980701
21
61.551562103124304
31
0
0
LINE
5
709
100
AcDbEntity
8
0
100
AcDbLine
10
242.72298704597418
20
59.929235458471013
30
0
11
244.69258318516634
21
59.581940563881062
31
0
0
LINE
5
710
100
AcDbEntity
8
0
100
AcDbLine
10
245.15405130810268
20
73.716560833121648
30
0
11
247.12367284734569
21
73.369240538481108
31
0
0
LINE
5
711
100
AcDbEntity
8
0
100
AcDbLine
10
247.12367284734569
20
73.369240538481108
30
0
11
246.77637795275612
21
71.399644399288832
31
0
0
LWPOLYLINE
5
712
100
AcDbEntity
8
0
100
AcDbPolyline
90
4
70
1
43
0.0
10
250.404953009906
20
75.175615951231862
10
269.1050038100077
20
71.540690881381693
10
265.47007874015753
20
52.840640081280306
10
246.7700279400558
20
56.475565151130354
0
LINE
5
713
100
AcDbEntity
8
0
100
AcDbLine
10
254.36504953009901
20
71.833553467106981
30
0
11
252.40177800355605
21
72.215189230378556
31
0
0
LINE
5
714
100
AcDbEntity
8
0
100
AcDbLine
10
252.40177800355605
20
72.215189230378556
30
0
11
252.0201676403353
21
70.25191770383536
31
0
0
LINE
5
715
100
AcDbEntity
8
0
100
AcDbLine
10
250.11209042418091
20
60.435661671323366
30
0
11
249.73045466090937
21
58.47239014478032
31
0
0
LINE
5
716
100
AcDbEntity
8
0
100
AcDbLine
10
249.73045466090937
20
58.47239014478032
30
0
11
251.69372618745254
21
58.090779781559611
31
0
0
LINE
5
717
100
AcDbEntity
8
0
100
AcDbLine
10
261.50998221996451
20
56.182702565405187
30
0
11
263.47325374650768
21
55.801066802133619
31
0
0
LINE
5
718
100
AcDbEntity
8
0
100
AcDbLine
10
263.47325374650768
20
55.801066802133619
30
0
11
263.85486410972817
21
57.764338328676672
31
0
0
LINE
5
719
100
AcDbEntity
8
0
100
AcDbLine
10
264.18130556261121
20
69.925476250952556
30
0
11
266.14457708915415
21
69.543865887731727
31
0
0
LINE
5
720
100
AcDbEntity
8
0
100
AcDbLine
10
266.14457708915415
20
69.543865887731727
30
0
11
265.76294132588259
21
67.580594361188787
31
0
0
LWPOLYLINE
5
721
100
AcDbEntity
8
0
100
AcDbPolyline
90
4
70
1
43
0.0
10
89.789179578359168
20
52.959105918211897
10
89.789179578359168
20
33.909067818135682
10
70.739141478283045
20
33.909067818135682
10
70.739141478283045
20
52.959105918211897
0
LINE
5
722
100
AcDbEntity
8
0
100
AcDbLine
10
73.264160528321099
20
50.434086868173857
30
0
11
73.264160528321099
21
48.434086868173729
31
0
0
LINE
5
723
100
AcDbEntity
8
0
100
AcDbLine
10
75.264160528320872
20
50.434086868173857
30
0
11
73.264160528321099
21
50.434086868173857
31
0
0
LINE
5
724
100
AcDbEntity
8
0
100
AcDbLine
10
73.264160528321099
20
36.434086868173722
30
0
11
75.264160528320872
21
36.434086868173722
31
0
0
LINE
5
725
100
AcDbEntity
8
0
100
AcDbLine
10
73.264160528321099
20
38.434086868173722
30
0
11
73.264160528321099
21
36.434086868173722
31
0
0
LINE
5
726
100
AcDbEntity
8
0
100
AcDbLine
10
87.264160528321099
20
36.434086868173722
30
0
11
87.264160528321099
21
38.434086868173722
31
0
0
LINE
5
727
100
AcDbEntity
8
0
100
AcDbLine
10
85.264160528321099
20
36.434086868173722
30
0
11
87.264160528321099
21
36.434086868173722
31
0
0
LINE
5
728
100
AcDbEntity
8
0
100
AcDbLine
10
85.264160528321099
20
50.434086868173857
30
0
11
87.264160528321099
21
50.434086868173857
31
0
0
LINE
5
729
100
AcDbEntity
8
0
100
AcDbLine
10
87.264160528321099
20
50.434086868173857
30
0
11
87.264160528321099
21
48.434086868173729
31
0
0
LWPOLYLINE
5
730
100
AcDbEntity
8
0
100
AcDbPolyline
90
4
70
1
43
0.0
10
112.80535941071889
20
28.281051562103251
10
94.448183896367723
20
33.371932943865893
10
99.539065278130494
20
51.729108458216857
10
117.89624079248163
20
46.6382270764542
0
LINE
5
731
100
AcDbEntity
8
0
100
AcDbLine
10
101.29748539497086
20
48.621158242316476
30
0
11
100.76299212598428
21
46.693903987807978
31
0
0
LINE
5
732
100
AcDbEntity
8
0
100
AcDbLine
10
103.22473964947949
20
48.086690373380861
30
0
11
101.29748539497086
21
48.621158242316476
31
0
0
LINE
5
733
100
AcDbEntity
8
0
100
AcDbLine
10
98.090601981204145
20
37.057607315214575
30
0
11
97.556134112268182
21
35.13035306070617
31
0
0
LINE
5
734
100
AcDbEntity
8
0
100
AcDbLine
10
97.556134112268182
20
35.13035306070617
30
0
11
99.483388366776794
21
34.59585979171959
31
0
0
LINE
5
735
100
AcDbEntity
8
0
100
AcDbLine
10
111.04693929387849
20
31.389001778003607
30
0
11
111.58143256286509
21
33.316256032512115
31
0
0
LINE
5
736
100
AcDbEntity
8
0
100
AcDbLine
10
109.11968503937011
20
31.923469646939225
30
0
11
111.04693929387849
21
31.389001778003607
31
0
0
LINE
5
737
100
AcDbEntity
8
0
100
AcDbLine
10
114.78829057658119
20
44.87980695961393
30
0
11
114.25382270764544
21
42.952552705105525
31
0
0
LINE
5
738
100
AcDbEntity
8
0
100
AcDbLine
10
112.86103632207258
20
45.41430022860051
30
0
11
114.78829057658119
21
44.87980695961393
31
0
0
LWPOLYLINE
5
739
100
AcDbEntity
8
0
100
AcDbPolyline
90
4
70
1
43
0.0
10
124.65687071374145
20
44.126466852933738
10
141.15466090932205
20
34.601447802895564
10
131.62964185928377
20
18.103657607315313
10
115.13185166370317
20
27.628676657353374
0
LINE
5
740
100
AcDbEntity
8
0
100
AcDbLine
10
127.31313182626354
20
39.677216154432244
30
0
11
125.58107696215394
21
40.677241554483096
31
0
0
LINE
5
741
100
AcDbEntity
8
0
100
AcDbLine
10
125.58107696215394
20
40.677241554483096
30
0
11
124.58107696215393
21
38.945161290322631
31
0
0
LINE
5
742
100
AcDbEntity
8
0
100
AcDbLine
10
119.58110236220477
20
30.284937769875569
30
0
11
118.58107696215393
21
28.552882905765841
31
0
0
LINE
5
743
100
AcDbEntity
8
0
100
AcDbLine
10
118.58107696215393
20
28.552882905765841
30
0
11
120.31315722631442
21
27.552882905765838
31
0
0
LINE
5
744
100
AcDbEntity
8
0
100
AcDbLine
10
128.97338074676168
20
22.552908305816693
30
0
11
130.70543561087129
21
21.552882905765838
31
0
0
LINE
5
745
100
AcDbEntity
8
0
100
AcDbLine
10
130.70543561087129
20
21.552882905765838
30
0
11
131.70543561087129
21
23.284963169926414
31
0
0
LINE
5
746
100
AcDbEntity
8
0
100
AcDbLine
10
135.97335534671083
20
34.677241554483196
30
0
11
137.70543561087129
21
33.677241554483203
31
0
0
LINE
5
747
100
AcDbEntity
8
0
100
AcDbLine
10
137.70543561087129
20
33.677241554483203
30
0
11
136.70541021082045
21
31.945186690373362
31
0
0
LWPOLYLINE
5
748
100
AcDbEntity
8
0
100
AcDbPolyline
90
4
70
1
43
0.0
10
158.31191262382526
20
34.601473202946408
10
174.80975361950709
20
44.126492252984583
10
184.33477266954537
20
27.628651257302522
10
167.83693167386357
20
18.103632207264468
0
LINE
5
749
100
AcDbEntity
8
0
100
AcDbLine
10
163.49321818643645
20
34.677241554483196
30
0
11
161.76116332232664
21
33.677241554483203
31
0
0
LINE
5
750
100
AcDbEntity
8
0
100
AcDbLine
10
161.76116332232664
20
33.677241554483203
30
0
11
162.76116332232661
21
31.945186690373362
31
0
0
LINE
5
751
100
AcDbEntity
8
0
100
AcDbLine
10
167.76116332232661
20
23.284937769875569
30
0
11
168.76116332232664
21
21.552882905765838
31
0
0
LINE
5
752
100
AcDbEntity
8
0
100
AcDbLine
10
168.76116332232664
20
21.552882905765838
30
0
11
170.49321818643625
21
22.552882905765838
31
0
0
LINE
5
753
100
AcDbEntity
8
0
100
AcDbLine
10
179.15346710693416
20
27.552882905765838
30
0
11
180.88552197104403
21
28.552882905765841
31
0
0
LINE
5
754
100
AcDbEntity
8
0
100
AcDbLine
10
180.88552197104403
20
28.552882905765841
30
0
11
179.885521971044
21
30.284937769875569
31
0
0
LINE
5
755
100
AcDbEntity
8
0
100
AcDbLine
10
172.15346710693439
20
39.677241554483096
30
0
11
173.885521971044
21
40.677241554483096
31
0
0
LINE
5
756
100
AcDbEntity
8
0
100
AcDbLine
10
173.885521971044
20
40.677241554483096
30
0
11
174.885521971044
21
38.945186690373468
31
0
0
LWPOLYLINE
5
757
100
AcDbEntity
8
0
100
AcDbPolyline
90
4
70
1
43
0.0
10
181.69733299466611
20
46.51122682245375
10
200.05453390906794
20
51.602133604267244
10
205.14544069088132
20
33.244932689865429
10
186.78823977647949
20
28.154025908051835
0
LINE
5
758
100
AcDbEntity
8
0
100
AcDbLine
10
186.73256286512586
20
45.287299974599932
30
0
11
184.8053086106172
21
44.752832105664204
31
0
0
LINE
5
759
100
AcDbEntity
8
0
100
AcDbLine
10
184.8053086106172
20
44.752832105664204
30
0
11
185.33977647955314
21
42.825552451104954
31
0
0
LINE
5
760
100
AcDbEntity
8
0
100
AcDbLine
10
188.0121666243333
20
33.189255778511551
30
0
11
188.54663449326904
21
31.262001524003043
31
0
0
LINE
5
761
100
AcDbEntity
8
0
100
AcDbLine
10
188.54663449326904
20
31.262001524003043
30
0
11
190.47391414782848
21
31.796469392938775
31
0
0
LINE
5
762
100
AcDbEntity
8
0
100
AcDbLine
10
200.1102108204216
20
34.46885953771914
30
0
11
202.03746507493022
21
35.003327406654876
31
0
0
LINE
5
763
100
AcDbEntity
8
0
100
AcDbLine
10
202.03746507493022
20
35.003327406654876
30
0
11
201.50299720599449
21
36.930607061214118
31
0
0
LINE
5
764
100
AcDbEntity
8
0
100
AcDbLine
10
196.36885953771912
20
47.959690119380298
30
0
11
198.29613919227839
21
48.49415798831604
31
0
0
LINE
5
765
100
AcDbEntity
8
0
100
AcDbLine
10
198.29613919227839
20
48.49415798831604
30
0
11
198.83060706121412
21
46.566903733807536
31
0
0
LWPOLYLINE
5
766
100
AcDbEntity
8
0
100
AcDbPolyline
90
4
70
1
43
0.0
10
209.80441960883925
20
52.832105664211333
10
228.85445770891556
20
52.832105664211333
10
228.85445770891556
20
33.782067564135104
10
209.80441960883925
20
33.782067564135104
0
LINE
5
767
100
AcDbEntity
8
0
100
AcDbLine
10
214.32943865887734
20
50.307086614173279
30
0
11
212.32943865887734
21
50.307086614173279
31
0
0
LINE
5
768
100
AcDbEntity
8
0
100
AcDbLine
10
212.32943865887734
20
50.307086614173279
30
0
11
212.32943865887734
21
48.307086614173272
31
0
0
LINE
5
769
100
AcDbEntity
8
0
100
AcDbLine
10
212.32943865887734
20
38.307086614173272
30
0
11
212.32943865887734
21
36.307086614173151
31
0
0
LINE
5
770
100
AcDbEntity
8
0
100
AcDbLine
10
212.32943865887734
20
36.307086614173151
30
0
11
214.32943865887734
21
36.307086614173151
31
0
0
LINE
5
771
100
AcDbEntity
8
0
100
AcDbLine
10
224.32943865887751
20
36.307086614173151
30
0
11
226.32943865887751
21
36.307086614173151
31
0
0
LINE
5
772
100
AcDbEntity
8
0
100
AcDbLine
10
226.32943865887751
20
36.307086614173151
30
0
11
226.32943865887751
21
38.307086614173272
31
0
0
LINE
5
773
100
AcDbEntity
8
0
100
AcDbLine
10
224.32943865887751
20
50.307086614173279
30
0
11
226.32943865887751
21
50.307086614173279
31
0
0
LINE
5
774
100
AcDbEntity
8
0
100
AcDbLine
10
226.32943865887751
20
50.307086614173279
30
0
11
226.32943865887751
21
48.307086614173272
31
0
0
ENDSEC
0
SECTION
2
OBJECTS
0
DICTIONARY
5
C
100
AcDbDictionary
3
ACAD_GROUP
350
D
3
ACAD_MLINESTYLE
350
17
0
DICTIONARY
5
D
100
AcDbDictionary
0
DICTIONARY
5
1A
330
C
100
AcDbDictionary
0
DICTIONARY
5
17
100
AcDbDictionary
0
ENDSEC
0
EOF
